<?xml version="1.0" encoding="UTF-8"?>
<!-- Generated by Pixelmator Pro 3.6.1 -->
<svg width="1807" height="779" viewBox="0 0 1807 779" xmlns="http://www.w3.org/2000/svg">
    <g id="Capa-1">
        <g id="Agrupar">
            <g id="g1">
                <path id="Trazado" fill="#4ea98b" stroke="none" d="M 923.987061 43.388672 L 916.963867 42.40802 L 916.963867 38.326782 L 960.652832 38.326782 L 961.46875 52.208252 L 956.160645 52.208252 L 953.711182 43.144531 L 932.72522 42.572815 L 932.72522 66.254456 L 947.503906 66.008301 L 948.893433 59.231323 L 953.220825 59.231323 L 953.220825 78.339417 L 948.974854 78.339417 L 947.503906 71.234924 L 932.72522 70.909424 L 932.72522 94.182129 L 945.463257 94.997925 L 945.463257 98.999817 L 917.454224 98.999817 L 917.454224 94.997925 L 923.987061 94.182129 L 923.987061 43.388672 Z"/>
                <path id="path1" fill="#4ea98b" stroke="none" d="M 977.433472 93.242188 C 973.649292 88.969727 971.757202 82.341309 971.757202 73.358948 L 971.757202 43.388672 L 965.958862 42.40802 L 965.958862 38.326782 L 987.762695 38.326782 L 987.762695 42.40802 L 980.820923 43.470032 L 980.820923 74.256165 C 980.820923 81.661743 982.141357 86.996216 984.782104 90.261597 C 987.422852 93.529053 991.219238 95.16272 996.17334 95.16272 C 1001.127319 95.16272 1004.842285 93.419189 1007.320313 89.936096 C 1009.796387 86.453003 1011.0354 81.38916 1011.0354 74.74646 L 1011.0354 43.470032 L 1004.177002 42.40802 L 1004.177002 38.326782 L 1023.203735 38.326782 L 1023.203735 42.40802 L 1017.242676 43.388672 L 1017.242676 74.337524 C 1017.242676 82.831604 1015.228516 89.173157 1011.200195 93.364258 C 1007.1698 97.557373 1001.808838 99.652893 995.113281 99.652893 C 987.109619 99.652893 981.215576 97.516663 977.433472 93.242188 Z"/>
                <path id="path2" fill="#4ea98b" stroke="none" d="M 1035.04248 43.388672 L 1028.509766 42.40802 L 1028.509766 38.326782 L 1043.699341 38.326782 L 1070.890503 78.176636 L 1075.464111 86.831421 L 1075.464111 43.388672 L 1068.359619 42.40802 L 1068.359619 38.326782 L 1087.632446 38.326782 L 1087.632446 42.40802 L 1081.099609 43.388672 L 1081.099609 98.999817 L 1074.648193 98.999817 L 1046.883301 58.250732 L 1040.594727 47.471924 L 1040.594727 94.182129 L 1048.352295 94.997925 L 1048.352295 98.999817 L 1028.509766 98.999817 L 1028.509766 94.997925 L 1035.04248 94.100708 L 1035.04248 43.388672 Z"/>
                <path id="path3" fill="#4ea98b" stroke="none" d="M 1100.207764 43.388672 L 1093.837646 42.40802 L 1093.837646 38.326782 L 1104.537109 38.326782 C 1106.22168 38.326782 1108.646851 38.216919 1111.804443 37.999268 C 1114.957886 37.781555 1117.32605 37.671692 1118.908936 37.671692 C 1129.032593 37.671692 1136.560303 40.218872 1141.487793 45.30719 C 1146.411377 50.399536 1148.877197 57.544739 1148.877197 66.744751 C 1148.877197 73.167725 1147.611694 78.870422 1145.080811 83.850891 C 1142.549805 88.833374 1138.997559 92.711182 1134.424072 95.488281 C 1129.850464 98.265381 1124.597412 99.652893 1118.660645 99.652893 C 1117.354492 99.652893 1115.124756 99.54303 1111.967163 99.327393 C 1108.699707 99.107666 1106.250244 98.999817 1104.61853 98.999817 L 1093.428711 98.999817 L 1093.428711 94.997925 L 1100.207764 94.182129 L 1100.207764 43.388672 Z M 1116.211182 95.079346 L 1118.660645 95.079346 C 1122.745972 95.026428 1126.351074 93.990845 1129.484253 91.976685 C 1132.613281 89.962524 1135.046631 86.955566 1136.792236 82.953674 C 1138.533691 78.951782 1139.404541 74.093384 1139.404541 68.376465 C 1139.404541 59.776611 1137.540894 53.243774 1133.80957 48.778076 C 1130.082397 44.314331 1124.458984 42.08252 1116.947632 42.08252 C 1115.368896 42.08252 1113.489014 42.192383 1111.312012 42.40802 C 1110.388428 42.572815 1109.570557 42.654175 1108.862549 42.654175 L 1108.862549 94.42627 C 1110.766846 94.863647 1113.216309 95.079346 1116.211182 95.079346 Z"/>
                <path id="path4" fill="#4ea98b" stroke="none" d="M 1175.252441 37.836487 L 1184.236816 37.836487 L 1204.077393 94.182129 L 1209.143311 94.997925 L 1209.143311 98.999817 L 1187.581543 98.999817 L 1187.581543 94.997925 L 1194.360596 94.182129 L 1190.523438 82.095093 L 1166.679077 82.095093 L 1162.842041 94.182129 L 1169.861084 94.997925 L 1169.861084 98.999817 L 1150.508789 98.999817 L 1150.508789 94.997925 L 1155.570679 94.182129 L 1175.252441 37.836487 Z M 1180.395752 50.9021 L 1178.357178 43.716187 L 1176.395874 51.064819 L 1168.147949 77.277405 L 1188.973145 77.277405 L 1180.395752 50.9021 Z"/>
                <path id="path5" fill="#4ea98b" stroke="none" d="M 1223.637085 96.019287 C 1219.41748 93.433411 1216.219238 89.799805 1214.042358 85.118408 C 1211.865479 80.437012 1210.774902 74.937744 1210.774902 68.62262 C 1210.774902 62.525208 1212.052612 57.135803 1214.616089 52.452393 C 1217.171387 47.770996 1220.682983 44.137329 1225.146729 41.551514 C 1229.610352 38.965637 1234.619385 37.671692 1240.173584 37.671692 C 1244.364624 37.671692 1249.4021 38.326782 1255.281738 39.632935 L 1257.975464 40.123291 L 1257.157593 54.820557 L 1251.688843 54.820557 L 1249.64624 44.450684 C 1248.885254 43.797607 1247.562866 43.240112 1245.687012 42.776245 C 1243.807129 42.314453 1241.508179 42.08252 1238.786011 42.08252 C 1235.302979 42.08252 1232.198242 43.075317 1229.476074 45.063049 C 1226.753906 47.050781 1224.617676 49.976379 1223.067383 53.841919 C 1221.513062 57.70752 1220.73999 62.333984 1220.73999 67.723389 C 1220.73999 72.842163 1221.419434 77.497131 1222.778564 81.688232 C 1224.141602 85.881348 1226.20874 89.213867 1228.987793 91.691895 C 1231.762939 94.169922 1235.193115 95.40686 1239.274292 95.40686 C 1242.15918 95.40686 1244.380859 95.16272 1245.931152 94.672424 C 1247.481445 94.182129 1248.799805 93.474121 1249.890381 92.548401 L 1253.320557 84.546692 L 1258.467773 85.199768 L 1256.506592 96.794434 C 1255.363159 96.849365 1253.674561 97.231812 1251.444702 97.937805 C 1249.483398 98.537964 1247.591309 99.012024 1245.768433 99.368042 C 1243.941406 99.720032 1241.670898 99.899048 1238.94873 99.899048 C 1232.959229 99.899048 1227.856689 98.605103 1223.637085 96.019287 Z"/>
                <path id="path6" fill="#4ea98b" stroke="none" d="M 1273.40918 43.388672 L 1265.816406 42.40802 L 1265.816406 38.326782 L 1289.823608 38.326782 L 1289.823608 42.40802 L 1282.230835 43.388672 L 1282.230835 94.182129 L 1289.823608 95.079346 L 1289.823608 98.999817 L 1265.897827 98.999817 L 1265.897827 94.997925 L 1273.40918 94.182129 L 1273.40918 43.388672 Z"/>
                <path id="path7" fill="#4ea98b" stroke="none" d="M 1308.724121 96.059937 C 1304.887085 93.502563 1301.98584 89.895386 1300.028687 85.240479 C 1298.067383 80.58551 1297.086792 75.183899 1297.086792 69.029541 C 1297.086792 62.771362 1298.270874 57.272095 1300.639038 52.535767 C 1303.007202 47.799438 1306.262451 44.137329 1310.400635 41.551514 C 1314.534668 38.965637 1319.189697 37.671692 1324.361328 37.671692 C 1332.857422 37.671692 1339.347534 40.355225 1343.839722 45.716125 C 1348.331909 51.079102 1350.573975 58.496887 1350.573975 67.969543 C 1350.573975 74.337524 1349.365479 79.932434 1346.940308 84.750122 C 1344.519287 89.567871 1341.198975 93.297119 1336.97937 95.937866 C 1332.759766 98.578674 1328.035645 99.899048 1322.811035 99.899048 C 1317.256836 99.899048 1312.561279 98.619385 1308.724121 96.059937 Z M 1311.377197 48.818726 C 1308.329468 53.420776 1306.807617 60.157043 1306.807617 69.029541 C 1306.807617 77.196045 1308.288818 83.661682 1311.255127 88.424438 C 1314.221436 93.18927 1318.371826 95.569641 1323.710327 95.569641 C 1328.934937 95.569641 1333.085327 93.201477 1336.161499 88.465149 C 1339.237671 83.728821 1340.775757 76.925415 1340.775757 68.050903 C 1340.775757 59.831543 1339.306885 53.420776 1336.36499 48.818726 C 1333.427124 44.21875 1329.260498 41.919739 1323.873047 41.919739 C 1318.591553 41.919739 1314.428955 44.21875 1311.377197 48.818726 Z M 1317.830566 31.303711 L 1328.772217 18.891174 L 1335.388428 23.055786 C 1333.862549 24.962158 1331.754761 26.974243 1329.057007 29.098267 C 1326.363281 31.22229 1323.98291 32.772583 1321.911865 33.753235 L 1317.830566 31.303711 Z"/>
                <path id="path8" fill="#4ea98b" stroke="none" d="M 1363.887695 43.388672 L 1357.352905 42.40802 L 1357.352905 38.326782 L 1372.54248 38.326782 L 1399.735718 78.176636 L 1404.309326 86.831421 L 1404.309326 43.388672 L 1397.204834 42.40802 L 1397.204834 38.326782 L 1416.475586 38.326782 L 1416.475586 42.40802 L 1409.944824 43.388672 L 1409.944824 98.999817 L 1403.491455 98.999817 L 1375.728516 58.250732 L 1369.441895 47.471924 L 1369.441895 94.182129 L 1377.19751 94.997925 L 1377.19751 98.999817 L 1357.352905 98.999817 L 1357.352905 94.997925 L 1363.887695 94.100708 L 1363.887695 43.388672 Z"/>
                <path id="path9" fill="#4ea98b" stroke="none" d="M 933.982544 171.261353 L 919.716553 168.999023 L 919.716553 158.212036 L 1015.755371 158.212036 L 1017.494873 189.702148 L 1003.576904 189.702148 L 997.139648 170.565552 L 959.55835 168.651123 L 959.55835 217.888184 L 985.481934 217.36731 L 988.788086 202.055664 L 999.922852 202.055664 L 999.922852 246.247131 L 988.960938 246.247131 L 985.481934 230.5896 L 959.55835 229.893799 L 959.55835 275.303955 L 986.177734 277.043457 L 986.177734 287.482483 L 920.585327 287.482483 L 920.585327 277.043457 L 933.982544 275.303955 L 933.982544 171.261353 Z"/>
                <path id="path10" fill="#4ea98b" stroke="none" d="M 1039.5896 160.299438 L 1026.715332 158.037109 L 1026.715332 148.641724 L 1058.903198 144.814819 L 1059.251099 144.814819 L 1063.94873 148.120911 L 1063.94873 275.651855 L 1076.648193 277.043457 L 1076.648193 287.482483 L 1027.411133 287.482483 L 1027.411133 277.043457 L 1039.5896 275.476868 L 1039.5896 160.299438 Z"/>
                <path id="path11" fill="#4ea98b" stroke="none" d="M 1095.178467 211.450989 C 1099.528198 203.795166 1105.35498 198.027344 1112.662964 194.139404 C 1119.970947 190.255493 1127.913574 188.310547 1136.499268 188.310547 C 1151.115112 188.310547 1162.394409 192.806763 1170.337158 201.795227 C 1178.279785 210.785706 1182.259277 222.994751 1182.259277 238.418335 C 1182.259277 249.43927 1180.086426 258.804077 1175.732666 266.516907 C 1171.386963 274.23175 1165.584473 279.973145 1158.333496 283.741028 C 1151.08252 287.508911 1143.115479 289.396973 1134.415894 289.396973 C 1119.91394 289.396973 1108.659058 284.90271 1100.659424 275.912231 C 1092.65564 266.925842 1088.653809 254.716797 1088.653809 239.289124 C 1088.653809 228.388245 1090.828613 219.106812 1095.178467 211.450989 Z M 1155.460815 240.157837 C 1155.460815 226.935608 1153.898315 216.875 1150.765137 209.971924 C 1147.63208 203.072876 1142.529541 199.620361 1135.45752 199.620361 C 1121.997314 199.620361 1115.275269 212.264771 1115.275269 237.549622 C 1115.275269 250.771851 1116.927246 260.836548 1120.231323 267.735596 C 1123.5354 274.636597 1128.727417 278.087158 1135.807495 278.087158 C 1148.909668 278.087158 1155.460815 265.446777 1155.460815 240.157837 Z"/>
                <path id="path12" fill="#4ea98b" stroke="none" d="M 1198.087769 277.21637 L 1209.570557 275.824768 L 1209.570557 207.276184 L 1198.437744 204.143066 L 1198.437744 192.139465 L 1225.403076 188.485474 L 1225.923828 188.485474 L 1230.273682 191.964478 L 1230.273682 195.793457 L 1229.752808 209.884399 L 1230.273682 209.884399 C 1231.087402 207.567139 1232.999878 204.696411 1236.015015 201.272339 C 1239.030151 197.852356 1242.830566 194.835205 1247.412354 192.224915 C 1251.994019 189.616699 1256.954102 188.310547 1262.288574 188.310547 C 1264.839844 188.310547 1267.045288 188.658447 1268.900757 189.354248 L 1268.900757 215.452881 C 1265.421753 213.017578 1261.185913 211.798889 1256.197266 211.798889 C 1247.729736 211.798889 1240.364746 214.061279 1234.102539 218.583984 L 1234.102539 275.651855 L 1254.284912 277.21637 L 1254.284912 287.482483 L 1198.087769 287.482483 L 1198.087769 277.21637 Z"/>
                <path id="path13" fill="#4ea98b" stroke="none" d="M 1289.689331 275.912231 C 1282.210449 266.925842 1278.467041 254.65979 1278.467041 239.114136 C 1278.467041 228.67511 1280.407959 219.627686 1284.297852 211.973877 C 1288.179688 204.317993 1293.660645 198.462708 1300.736694 194.39978 C 1307.812744 190.340942 1315.987305 188.310547 1325.268799 188.310547 C 1336.865479 188.310547 1345.801025 191.356201 1352.063232 197.445435 C 1358.325439 203.534729 1361.57251 212.207825 1361.808472 223.456604 C 1361.808472 231.110413 1361.340576 236.7948 1360.41687 240.505737 L 1303.869873 240.505737 C 1304.33374 251.062805 1306.828003 259.27002 1311.352783 265.125305 C 1315.873413 270.98468 1322.310547 273.912354 1330.664307 273.912354 C 1335.188965 273.912354 1339.856201 273.159546 1344.6698 271.649963 C 1349.47937 270.144409 1353.279785 268.343872 1356.067139 266.25647 L 1360.41687 275.824768 C 1357.283691 279.191895 1352.209717 282.29248 1345.190674 285.134644 C 1338.171631 287.974854 1331.067139 289.396973 1323.877197 289.396973 C 1308.56958 289.396973 1297.172241 284.90271 1289.689331 275.912231 Z M 1337.447266 230.066711 C 1337.679199 226.821655 1337.797241 224.325317 1337.797241 222.585815 C 1337.797241 207.162231 1332.633667 199.445374 1322.310547 199.445374 C 1316.626221 199.445374 1312.219482 201.707764 1309.090332 206.232483 C 1305.957275 210.755188 1304.219727 218.701965 1303.869873 230.066711 L 1337.447266 230.066711 Z"/>
                <path id="path14" fill="#4ea98b" stroke="none" d="M 1385.469727 207.276184 L 1374.332886 204.143066 L 1374.332886 192.139465 L 1403.214722 188.485474 L 1403.735596 188.485474 L 1408.085327 191.964478 L 1408.085327 198.749573 L 1407.9104 202.926392 C 1411.971191 199.097473 1417.248779 195.793457 1423.74292 193.008179 C 1430.241089 190.224976 1436.792236 188.833374 1443.404297 188.833374 C 1450.480347 188.833374 1456.018311 190.137512 1460.022217 192.747803 C 1464.021973 195.358032 1466.894775 199.445374 1468.632202 205.013794 C 1470.373779 210.5802 1471.244507 218.122131 1471.244507 227.631409 L 1471.244507 275.651855 L 1481.856445 277.043457 L 1481.856445 287.482483 L 1436.967163 287.482483 L 1436.967163 277.043457 L 1446.362549 275.651855 L 1446.362549 227.631409 C 1446.362549 221.601135 1445.955566 216.875 1445.145874 213.450928 C 1444.332031 210.032959 1442.85498 207.536621 1440.706543 205.970032 C 1438.562256 204.405518 1435.514526 203.622192 1431.575684 203.622192 C 1424.963623 203.622192 1417.887573 206.464417 1410.347656 212.14679 L 1410.347656 275.476868 L 1420.788818 277.043457 L 1420.788818 287.482483 L 1375.378662 287.482483 L 1375.378662 277.043457 L 1385.469727 275.476868 L 1385.469727 207.276184 Z"/>
                <path id="path15" fill="#4ea98b" stroke="none" d="M 1497.945313 213.017578 C 1501.949219 205.247803 1507.690674 199.184937 1515.173584 194.835205 C 1522.652344 190.485413 1531.380371 188.310547 1541.357666 188.310547 C 1545.992188 188.310547 1549.996094 188.658447 1553.361206 189.354248 C 1556.722168 190.050049 1560.494141 190.979797 1564.668945 192.139465 L 1569.7146 193.531067 L 1568.672852 223.281616 L 1553.536133 223.281616 L 1549.186401 204.143066 C 1548.490601 201.12793 1545.068604 199.620361 1538.920288 199.620361 C 1532.422119 199.620361 1527.352051 202.4646 1523.69812 208.144897 C 1520.044189 213.829346 1518.156128 222.703857 1518.042236 234.764404 C 1518.042236 247.52478 1520.24353 257.296509 1524.654297 264.081604 C 1529.061035 270.866699 1534.92041 274.260254 1542.224365 274.260254 C 1551.037842 274.260254 1559.159546 271.883911 1566.585449 267.127258 L 1570.585327 276.172668 C 1567.57019 279.421753 1562.955933 282.43689 1556.754761 285.220093 C 1550.549561 288.005371 1543.8479 289.396973 1536.657959 289.396973 C 1521.810059 289.396973 1510.648804 284.815247 1503.165894 275.651855 C 1495.687012 266.490479 1491.943604 254.484863 1491.943604 239.637024 C 1491.943604 229.661865 1493.945557 220.789368 1497.945313 213.017578 Z"/>
                <path id="path16" fill="#4ea98b" stroke="none" d="M 1595.988159 207.276184 L 1583.634644 203.970093 L 1583.634644 192.312378 L 1615.474609 188.485474 L 1615.824585 188.485474 L 1620.69519 191.964478 L 1620.69519 275.651855 L 1632.352905 277.043457 L 1632.352905 287.482483 L 1583.80957 287.482483 L 1583.80957 277.043457 L 1595.988159 275.476868 L 1595.988159 207.276184 Z M 1595.292358 171.261353 C 1592.859131 168.824036 1591.638428 165.692932 1591.638428 161.866028 C 1591.638428 157.45929 1593.030029 153.805298 1595.813232 150.904114 C 1598.600464 148.006958 1602.311401 146.554321 1606.950073 146.554321 C 1611.588745 146.554321 1615.128784 147.801514 1617.562012 150.295776 C 1619.99939 152.7901 1621.216064 155.8927 1621.216064 159.603638 C 1621.216064 164.244385 1619.824463 167.955322 1617.04126 170.738525 C 1614.258057 173.521729 1610.368042 174.91333 1605.383545 174.91333 L 1605.208496 174.91333 C 1601.033691 174.91333 1597.729736 173.696655 1595.292358 171.261353 Z"/>
                <path id="path17" fill="#4ea98b" stroke="none" d="M 1651.404053 211.450989 C 1655.753784 203.795166 1661.580566 198.027344 1668.88855 194.139404 C 1676.196533 190.255493 1684.13916 188.310547 1692.724854 188.310547 C 1707.33667 188.310547 1718.615967 192.806763 1726.562744 201.795227 C 1734.505371 210.785706 1738.480835 222.994751 1738.480835 238.418335 C 1738.480835 249.43927 1736.307983 258.804077 1731.958252 266.516907 C 1727.608398 274.23175 1721.80603 279.973145 1714.559082 283.741028 C 1707.308105 287.508911 1699.336914 289.396973 1690.637451 289.396973 C 1676.135498 289.396973 1664.884644 284.90271 1656.880859 275.912231 C 1648.881226 266.925842 1644.877319 254.716797 1644.877319 239.289124 C 1644.877319 228.388245 1647.054199 219.106812 1651.404053 211.450989 Z M 1711.686401 240.157837 C 1711.686401 226.935608 1710.123901 216.875 1706.990723 209.971924 C 1703.857666 203.072876 1698.755127 199.620361 1691.679077 199.620361 C 1678.2229 199.620361 1671.496826 212.264771 1671.496826 237.549622 C 1671.496826 250.771851 1673.148804 260.836548 1676.456909 267.735596 C 1679.760986 274.636597 1684.953003 278.087158 1692.029053 278.087158 C 1705.135254 278.087158 1711.686401 265.446777 1711.686401 240.157837 Z"/>
                <path id="path18" fill="#4ea98b" stroke="none" d="M 933.982544 359.746094 L 920.933228 357.483704 L 920.933228 346.696777 L 946.33606 346.696777 C 950.162964 346.696777 955.32251 346.464844 961.820679 346.000977 C 963.326172 345.887024 965.617065 345.769043 968.693237 345.653076 C 971.765381 345.539124 974.52002 345.478088 976.957397 345.478088 C 998.297363 345.478088 1014.276367 350.814575 1024.890381 361.485596 C 1035.502319 372.158569 1040.80835 387.295288 1040.80835 406.895721 C 1040.80835 420.583862 1038.169556 432.762421 1032.89209 443.431366 C 1027.614502 454.10437 1020.105225 462.425507 1010.361938 468.398804 C 1000.618652 474.374146 989.249878 477.358765 976.261597 477.358765 C 972.894531 477.358765 967.619019 477.124817 960.429077 476.662964 C 953.700928 476.199097 949.119263 475.967163 946.68396 475.967163 L 920.237427 475.967163 L 920.237427 465.528137 L 933.982544 463.788635 L 933.982544 359.746094 Z M 975.73877 465.876038 C 987.335449 465.644104 996.443848 460.976929 1003.053955 451.870483 C 1009.666138 442.766083 1012.972168 429.108459 1012.972168 410.897583 C 1012.972168 393.614502 1009.723145 380.247803 1003.229004 370.793457 C 996.730713 361.341125 986.639648 356.612915 972.955566 356.612915 C 970.054321 356.612915 967.301636 356.787903 964.691406 357.135803 C 962.081055 357.483704 960.25415 357.717651 959.210449 357.831604 L 959.210449 464.309448 C 963.151245 465.353149 968.66272 465.876038 975.73877 465.876038 Z"/>
                <path id="path19" fill="#4ea98b" stroke="none" d="M 1063.336426 464.396942 C 1055.855469 455.410522 1052.116089 443.144501 1052.116089 427.598846 C 1052.116089 417.15979 1054.057007 408.112366 1057.942871 400.458557 C 1061.828857 392.802734 1067.309814 386.947388 1074.385742 382.884521 C 1081.459717 378.825684 1089.636475 376.795227 1098.917847 376.795227 C 1110.514526 376.795227 1119.450073 379.840881 1125.708252 385.930176 C 1131.974487 392.019409 1135.221558 400.692505 1135.45752 411.941284 C 1135.45752 419.595093 1134.985596 425.27951 1134.065918 428.990448 L 1077.516846 428.990448 C 1077.97876 439.547485 1080.475098 447.7547 1084.997803 453.609985 C 1089.522461 459.46936 1095.955566 462.397034 1104.313354 462.397034 C 1108.838135 462.397034 1113.501221 461.644257 1118.318848 460.134644 C 1123.128418 458.62912 1126.928955 456.828583 1129.712158 454.74118 L 1134.065918 464.309448 C 1130.932861 467.676575 1125.854736 470.777161 1118.839722 473.619354 C 1111.81665 476.459534 1104.712158 477.881653 1097.526245 477.881653 C 1082.2146 477.881653 1070.819336 473.387421 1063.336426 464.396942 Z M 1111.092285 418.551392 C 1111.328369 415.306366 1111.442261 412.810028 1111.442261 411.070526 C 1111.442261 395.646973 1106.282715 387.930054 1095.955566 387.930054 C 1090.275269 387.930054 1085.86853 390.192444 1082.737427 394.717163 C 1079.604248 399.239868 1077.864746 407.186646 1077.516846 418.551392 L 1111.092285 418.551392 Z"/>
                <path id="path20" fill="#4ea98b" stroke="none" d="M 1159.460693 348.78418 L 1146.586304 346.52179 L 1146.586304 337.126465 L 1178.772217 333.299561 L 1179.12207 333.299561 L 1183.817749 336.605591 L 1183.817749 464.136536 L 1196.52124 465.528137 L 1196.52124 475.967163 L 1147.282104 475.967163 L 1147.282104 465.528137 L 1159.460693 463.961548 L 1159.460693 348.78418 Z"/>
                <path id="path21" fill="#4ea98b" stroke="none" d="M 1216.878418 515.635986 C 1209.916382 510.763306 1206.437378 504.153198 1206.437378 495.801575 C 1206.437378 491.044891 1208.032471 486.550659 1211.222534 482.316864 C 1214.412598 478.083069 1218.27002 474.923462 1222.790771 472.83606 C 1217.456299 469.702942 1214.786987 464.718384 1214.786987 457.872284 C 1214.786987 453.931458 1216.064697 450.190002 1218.615967 446.649963 C 1221.167236 443.113983 1224.471191 440.359253 1228.532104 438.385803 C 1222.151855 435.9505 1217.399292 432.239563 1214.266113 427.250946 C 1211.137085 422.266418 1209.570557 416.350067 1209.570557 409.503967 C 1209.570557 402.89386 1211.511475 397.123993 1215.397339 392.194397 C 1219.283203 387.264771 1224.503784 383.46637 1231.054932 380.797119 C 1237.605957 378.129883 1244.7146 376.795227 1252.368408 376.795227 C 1265.938477 376.795227 1276.029663 379.405518 1282.641846 384.626038 C 1284.147339 382.654602 1286.702637 380.797119 1290.299683 379.057617 C 1293.892578 377.318115 1297.607666 376.447327 1301.432495 376.447327 L 1307.523804 376.447327 L 1307.523804 395.412964 L 1289.603882 395.412964 C 1291.341309 399.125946 1292.212158 403.066772 1292.212158 407.243622 C 1292.32605 417.798645 1288.615112 426.237762 1281.075195 432.556946 C 1273.5354 438.882202 1263.21228 442.039764 1250.105957 442.039764 C 1244.653564 442.039764 1240.071777 441.634888 1236.36084 440.82312 C 1235.201172 442.330688 1234.302002 443.925751 1233.667236 445.606262 C 1233.02832 447.288788 1232.710938 448.767883 1232.710938 450.043518 C 1232.710938 453.870422 1234.070068 456.480682 1236.796265 457.872284 C 1239.522461 459.263885 1244.421631 459.959686 1251.497559 459.959686 L 1270.117432 459.959686 C 1293.778687 459.959686 1305.6073 468.545288 1305.6073 485.710419 C 1305.6073 492.90036 1303.05603 499.337524 1297.953491 505.021942 C 1292.846924 510.704315 1286.063843 515.113098 1277.596191 518.246216 C 1269.128662 521.377319 1260.140137 522.943909 1250.630859 522.943909 C 1235.083252 522.943909 1223.836426 520.506592 1216.878418 515.635986 Z M 1272.204834 505.632294 C 1277.539307 502.092255 1280.208496 497.193176 1280.208496 490.928925 C 1280.208496 485.942352 1278.902344 482.345337 1276.294189 480.141968 C 1273.681885 477.938599 1269.01062 476.837952 1262.288574 476.837952 L 1243.322998 476.837952 C 1240.421753 476.837952 1237.756592 476.662964 1235.319214 476.315063 C 1232.186035 480.489868 1230.619507 485.47644 1230.619507 491.27887 C 1230.619507 497.654999 1232.361084 502.527649 1235.840088 505.8927 C 1239.319092 509.255737 1245.117432 510.938293 1253.239136 510.938293 C 1260.547119 510.938293 1266.866211 509.168274 1272.204834 505.632294 Z M 1268.030029 409.156067 C 1268.030029 401.618225 1266.662842 396.080292 1263.940674 392.542297 C 1261.214355 389.004272 1257.068115 387.234253 1251.497559 387.234253 C 1246.045166 387.234253 1241.841797 389.004272 1238.883667 392.542297 C 1235.929565 396.080292 1234.448486 401.388306 1234.448486 408.460266 C 1234.448486 423.65802 1240.246826 431.252808 1251.847534 431.252808 C 1262.634521 431.252808 1268.030029 423.887909 1268.030029 409.156067 Z"/>
                <path id="path22" fill="#4ea98b" stroke="none" d="M 1330.749756 424.990601 C 1341.361694 419.656128 1355.078369 416.929901 1371.899658 416.81189 L 1371.899658 412.810028 C 1371.899658 408.055389 1371.403198 404.344452 1370.418457 401.675171 C 1369.433838 399.007935 1367.635254 397.008026 1365.0271 395.673401 C 1362.414795 394.34082 1358.614258 393.671448 1353.629761 393.671448 C 1347.945313 393.671448 1342.842773 394.397766 1338.318115 395.846313 C 1333.793335 397.29895 1329.097656 399.182922 1324.227051 401.502258 L 1318.831543 390.367432 C 1320.57312 388.859863 1323.498779 387.06134 1327.620605 384.973938 C 1331.734375 382.884521 1336.637573 381.057495 1342.322021 379.492981 C 1348.002319 377.926392 1353.861694 377.143127 1359.891968 377.143127 C 1368.823486 377.143127 1375.813965 378.30481 1380.859619 380.624146 C 1385.905151 382.945557 1389.526611 386.656494 1391.731934 391.759033 C 1393.93335 396.863586 1395.036011 403.705627 1395.036011 412.289185 L 1395.036011 465.528137 L 1404.431396 465.528137 L 1404.431396 475.271362 C 1402.112061 475.853241 1398.803955 476.429016 1394.515137 477.010864 C 1390.222412 477.590698 1386.454468 477.881653 1383.207397 477.881653 C 1379.260498 477.881653 1376.623779 477.299774 1375.289063 476.142151 C 1373.954468 474.982483 1373.29126 472.604126 1373.29126 469.007141 L 1373.29126 464.309448 C 1370.158081 467.790497 1366.097168 470.9216 1361.112671 473.704803 C 1356.124023 476.490051 1350.496582 477.881653 1344.234375 477.881653 C 1338.895874 477.881653 1333.996826 476.750458 1329.533081 474.488098 C 1325.065308 472.225708 1321.500854 468.921692 1318.831543 464.571899 C 1316.162354 460.222137 1314.831787 454.975159 1314.831787 448.824829 C 1314.831787 438.271851 1320.137695 430.325073 1330.749756 424.990601 Z M 1363.720947 461.265839 C 1366.854004 459.817261 1369.576172 458.047241 1371.899658 455.959839 L 1371.899658 427.425903 C 1361.458496 427.425903 1353.658203 429.195923 1348.498779 432.731903 C 1343.335205 436.271942 1340.755371 440.82312 1340.755371 446.389526 C 1340.755371 451.957977 1342.061523 456.191772 1344.6698 459.090942 C 1347.278076 461.992157 1350.846558 463.440735 1355.371338 463.440735 C 1357.804565 463.440735 1360.587769 462.716431 1363.720947 461.265839 Z"/>
                <path id="path23" fill="#4ea98b" stroke="none" d="M 1432.267456 472.748596 C 1426.583008 469.328583 1422.062378 464.022583 1418.697266 456.828583 C 1415.332275 449.638641 1413.651733 440.648163 1413.651733 429.861206 C 1413.651733 420.117981 1415.653687 411.21701 1419.653564 403.154266 C 1423.657471 395.093567 1429.54126 388.68689 1437.312988 383.928223 C 1445.084839 379.173584 1454.423218 376.795227 1465.328125 376.795227 C 1469.734863 376.795227 1473.909668 377.261108 1477.852539 378.186829 L 1477.852539 348.78418 L 1460.803467 346.348877 L 1460.803467 336.778564 L 1496.643311 333.299561 L 1497.164063 333.299561 L 1502.038818 336.953491 L 1502.038818 465.353149 L 1511.434082 465.353149 L 1511.434082 475.271362 C 1503.080444 477.010864 1496.179443 477.881653 1490.726929 477.881653 C 1487.015991 477.881653 1484.379272 477.271301 1482.812744 476.054657 C 1481.246094 474.835999 1480.464844 472.431213 1480.464844 468.834198 L 1480.464844 463.961548 C 1477.445679 468.024475 1473.327881 471.356995 1468.111328 473.967255 C 1462.890869 476.5755 1457.381348 477.881653 1451.583008 477.881653 C 1444.389038 477.881653 1437.951904 476.168579 1432.267456 472.748596 Z M 1470.805054 461.090881 C 1473.763184 459.526337 1476.115112 457.642395 1477.852539 455.436981 L 1477.852539 392.106934 C 1477.038818 390.94928 1475.329834 389.962524 1472.721558 389.148743 C 1470.109253 388.338989 1467.297607 387.930054 1464.282471 387.930054 C 1456.856445 387.930054 1450.911621 391.148682 1446.447998 397.58786 C 1441.984253 404.025024 1439.750366 414.319641 1439.750366 428.469604 C 1439.750366 440.300262 1441.662842 449.08728 1445.491699 454.828674 C 1449.320679 460.570038 1454.366211 463.440735 1460.628418 463.440735 C 1464.457397 463.440735 1467.850952 462.65744 1470.805054 461.090881 Z"/>
                <path id="path24" fill="#4ea98b" stroke="none" d="M 1530.656128 399.935669 C 1535.005859 392.279846 1540.832764 386.512024 1548.140625 382.624084 C 1555.448608 378.740234 1563.391357 376.795227 1571.976929 376.795227 C 1586.588745 376.795227 1597.868042 381.291504 1605.814819 390.279907 C 1613.757568 399.270386 1617.73291 411.479462 1617.73291 426.903046 C 1617.73291 437.92395 1615.560059 447.288788 1611.210327 455.001587 C 1606.860596 462.716431 1601.058105 468.457825 1593.811279 472.225708 C 1586.560303 475.993622 1578.589111 477.881653 1569.889526 477.881653 C 1555.387573 477.881653 1544.136719 473.387421 1536.133057 464.396942 C 1528.133301 455.410522 1524.129395 443.201477 1524.129395 427.773804 C 1524.129395 416.872925 1526.306396 407.591522 1530.656128 399.935669 Z M 1590.938477 428.642548 C 1590.938477 415.420288 1589.375977 405.35968 1586.24292 398.456604 C 1583.109741 391.557617 1578.007202 388.105042 1570.931152 388.105042 C 1557.474976 388.105042 1550.748901 400.749481 1550.748901 426.034302 C 1550.748901 439.256561 1552.400879 449.321259 1555.708984 456.220276 C 1559.013062 463.121307 1564.205078 466.571838 1571.281128 466.571838 C 1584.387451 466.571838 1590.938477 453.931458 1590.938477 428.642548 Z"/>
                <path id="path25" fill="#4ea98b" stroke="none" d="M 947.640137 657.927246 C 938.4198 652.299805 931.429199 644.556458 926.674561 634.697266 C 921.917969 624.842102 919.541626 613.7052 919.541626 601.294739 C 919.541626 587.024719 922.296387 574.789185 927.805786 564.584106 C 933.313232 554.377014 941.115479 546.66217 951.206665 541.44165 C 961.297852 536.223145 973.069458 533.612854 986.525635 533.612854 C 999.168091 533.612854 1013.377075 535.413391 1029.152588 539.006348 L 1027.238159 571.367188 L 1009.666138 571.367188 L 1004.968506 549.097473 C 1003.806763 547.939819 1001.603394 546.865601 998.356323 545.878906 C 995.109253 544.894165 990.875488 544.39978 985.656982 544.39978 C 974.288086 544.39978 965.356689 549.01001 958.862549 558.232422 C 952.364258 567.452759 949.119263 580.762512 949.119263 598.161621 C 949.119263 615.210754 951.902466 628.988403 957.470947 639.482422 C 963.037354 649.980469 971.50293 655.229492 982.871704 655.229492 C 987.510376 655.229492 991.860107 654.647583 995.921021 653.487915 C 999.979858 652.332336 1003.053955 650.822754 1005.141357 648.963196 L 1005.141357 611.556763 L 986.700684 609.819336 L 986.700684 598.161621 L 1039.591675 598.161621 L 1039.591675 609.819336 L 1030.369263 611.385864 L 1030.369263 657.491821 C 1027.93396 657.605774 1023.525146 658.594543 1017.146973 660.450012 C 1009.723145 662.423462 1003.373413 663.900513 998.095947 664.885254 C 992.816406 665.869934 986.987549 666.362305 980.611328 666.362305 C 967.848877 666.362305 956.862549 663.554688 947.640137 657.927246 Z"/>
                <path id="path26" fill="#4ea98b" stroke="none" d="M 1120.841675 663.754028 C 1119.100098 662.130493 1118.22937 659.693176 1118.22937 656.446106 L 1118.22937 651.750488 C 1115.100342 655.575317 1110.689453 658.968872 1105.009155 661.927063 C 1099.324707 664.885254 1093.640381 666.362305 1087.958008 666.362305 C 1076.82312 666.362305 1068.876343 663.493652 1064.121704 657.752258 C 1059.36499 652.010864 1056.98877 642.526001 1056.98877 629.305786 L 1056.98877 580.241699 L 1048.289185 577.804321 L 1048.289185 567.888184 L 1077.866821 565.625793 L 1078.039795 565.625793 L 1081.520752 568.06311 L 1081.520752 629.305786 C 1081.520752 637.773438 1082.564453 643.689758 1084.651855 647.050781 C 1086.739258 650.415833 1090.625244 652.096313 1096.30957 652.096313 C 1103.149658 652.096313 1109.533936 649.431152 1115.446167 644.09259 L 1115.446167 580.241699 L 1103.788452 577.629395 L 1103.788452 567.888184 L 1135.282593 565.625793 L 1135.628418 565.625793 L 1139.807373 568.06311 L 1139.807373 653.662903 L 1149.548584 653.662903 L 1149.373535 663.579102 C 1148.909668 663.697083 1146.765381 664.16095 1142.936401 664.970703 C 1139.107422 665.780396 1134.525757 666.191406 1129.191284 666.191406 C 1125.366455 666.191406 1122.579102 665.377563 1120.841675 663.754028 Z"/>
                <path id="path27" fill="#4ea98b" stroke="none" d="M 1161.897949 654.183716 L 1173.380737 652.792114 L 1173.380737 584.241516 L 1162.247925 581.112427 L 1162.247925 569.104797 L 1189.213257 565.450806 L 1189.734131 565.450806 L 1194.083862 568.933899 L 1194.083862 572.758789 L 1193.562988 586.853821 L 1194.083862 586.853821 C 1194.897705 584.534485 1196.810059 581.661743 1199.825195 578.239746 C 1202.840332 574.821777 1206.640869 571.802551 1211.222534 569.194336 C 1215.804199 566.582031 1220.764404 565.279907 1226.098877 565.279907 C 1228.650146 565.279907 1230.855469 565.625793 1232.710938 566.321594 L 1232.710938 592.420227 C 1229.231934 589.98291 1224.996094 588.766235 1220.007568 588.766235 C 1211.539917 588.766235 1204.175049 591.028625 1197.912842 595.553345 L 1197.912842 652.617188 L 1218.095093 654.183716 L 1218.095093 664.449829 L 1161.897949 664.449829 L 1161.897949 654.183716 Z"/>
                <path id="path28" fill="#4ea98b" stroke="none" d="M 1243.84375 654.183716 L 1255.326538 652.792114 L 1255.326538 584.241516 L 1244.193726 581.112427 L 1244.193726 569.104797 L 1271.159058 565.450806 L 1271.679932 565.450806 L 1276.029663 568.933899 L 1276.029663 572.758789 L 1275.508789 586.853821 L 1276.029663 586.853821 C 1276.843506 584.534485 1278.755859 581.661743 1281.770996 578.239746 C 1284.786133 574.821777 1288.58667 571.802551 1293.168335 569.194336 C 1297.75 566.582031 1302.710205 565.279907 1308.044678 565.279907 C 1310.595947 565.279907 1312.80127 565.625793 1314.656738 566.321594 L 1314.656738 592.420227 C 1311.177734 589.98291 1306.941895 588.766235 1301.953369 588.766235 C 1293.485718 588.766235 1286.12085 591.028625 1279.858643 595.553345 L 1279.858643 652.617188 L 1300.040894 654.183716 L 1300.040894 664.449829 L 1243.84375 664.449829 L 1243.84375 654.183716 Z"/>
                <path id="path29" fill="#4ea98b" stroke="none" d="M 1337.272339 584.241516 L 1324.918823 580.9375 L 1324.918823 569.279785 L 1356.758789 565.450806 L 1357.108765 565.450806 L 1361.97937 568.933899 L 1361.97937 652.617188 L 1373.637085 654.008789 L 1373.637085 664.449829 L 1325.09375 664.449829 L 1325.09375 654.008789 L 1337.272339 652.446289 L 1337.272339 584.241516 Z M 1336.576538 548.22876 C 1334.143311 545.791382 1332.922607 542.660278 1332.922607 538.833374 C 1332.922607 534.426636 1334.314209 530.772705 1337.097412 527.87146 C 1339.884644 524.974365 1343.595581 523.521729 1348.234253 523.521729 C 1352.872925 523.521729 1356.412964 524.76886 1358.846191 527.263184 C 1361.283569 529.757446 1362.500244 532.860107 1362.500244 536.571045 C 1362.500244 541.211731 1361.108643 544.922668 1358.325439 547.705872 C 1355.542236 550.489075 1351.652222 551.880676 1346.667725 551.880676 L 1346.492676 551.880676 C 1342.317871 551.880676 1339.013916 550.664063 1336.576538 548.22876 Z"/>
                <path id="path30" fill="#4ea98b" stroke="none" d="M 1400.166992 613.473267 C 1410.779053 608.138794 1424.495605 605.412598 1441.316895 605.294556 L 1441.316895 601.294739 C 1441.316895 596.538086 1440.820557 592.827148 1439.835815 590.157837 C 1438.851074 587.492676 1437.052612 585.490723 1434.444336 584.156067 C 1431.832031 582.8255 1428.031616 582.154114 1423.047119 582.154114 C 1417.362671 582.154114 1412.260132 582.882446 1407.735352 584.331055 C 1403.210693 585.779602 1398.515015 587.663574 1393.644409 589.98291 L 1388.248901 578.850098 C 1389.990479 577.344543 1392.916016 575.541992 1397.037964 573.45459 C 1401.151733 571.367188 1406.054932 569.540161 1411.739258 567.973633 C 1417.419678 566.411133 1423.279053 565.625793 1429.309326 565.625793 C 1438.240723 565.625793 1445.231323 566.785461 1450.276855 569.104797 C 1455.32251 571.428223 1458.943848 575.13916 1461.149292 580.241699 C 1463.350586 585.348267 1464.453369 592.188293 1464.453369 600.769836 L 1464.453369 654.008789 L 1473.848633 654.008789 L 1473.848633 663.754028 C 1471.529297 664.335938 1468.221191 664.913696 1463.932495 665.495605 C 1459.639648 666.073364 1455.871826 666.362305 1452.624756 666.362305 C 1448.677734 666.362305 1446.041016 665.780396 1444.706421 664.624817 C 1443.371826 663.465149 1442.708496 661.088867 1442.708496 657.491821 L 1442.708496 652.792114 C 1439.575439 656.271118 1435.514526 659.404297 1430.530029 662.1875 C 1425.541382 664.970703 1419.91394 666.362305 1413.651733 666.362305 C 1408.313232 666.362305 1403.414063 665.231079 1398.950439 662.972778 C 1394.482666 660.710449 1390.918213 657.402344 1388.248901 653.052551 C 1385.57959 648.702759 1384.249023 643.457825 1384.249023 637.30957 C 1384.249023 626.754517 1389.555054 618.807739 1400.166992 613.473267 Z M 1433.138184 649.748535 C 1436.271362 648.299927 1438.99353 646.529907 1441.316895 644.442505 L 1441.316895 615.906555 C 1430.875854 615.906555 1423.075562 617.676575 1417.916016 621.216614 C 1412.752441 624.752563 1410.172729 629.305786 1410.172729 634.872192 C 1410.172729 640.438599 1411.478882 644.674438 1414.087158 647.571594 C 1416.695313 650.472778 1420.263916 651.921387 1424.788574 651.921387 C 1427.221924 651.921387 1430.005127 651.201172 1433.138184 649.748535 Z"/>
                <path id="path31" fill="#4ea98b" stroke="none" d="M 1484.63562 654.183716 L 1496.118408 652.792114 L 1496.118408 584.241516 L 1484.985596 581.112427 L 1484.985596 569.104797 L 1511.950928 565.450806 L 1512.47168 565.450806 L 1516.821533 568.933899 L 1516.821533 572.758789 L 1516.300659 586.853821 L 1516.821533 586.853821 C 1517.635254 584.534485 1519.547729 581.661743 1522.562866 578.239746 C 1525.578003 574.821777 1529.378418 571.802551 1533.960205 569.194336 C 1538.54187 566.582031 1543.501953 565.279907 1548.836426 565.279907 C 1551.387695 565.279907 1553.59314 565.625793 1555.448608 566.321594 L 1555.448608 592.420227 C 1551.969604 589.98291 1547.733765 588.766235 1542.745117 588.766235 C 1534.277588 588.766235 1526.912598 591.028625 1520.650391 595.553345 L 1520.650391 652.617188 L 1540.832764 654.183716 L 1540.832764 664.449829 L 1484.63562 664.449829 L 1484.63562 654.183716 Z"/>
                <path id="path32" fill="#4ea98b" stroke="none" d="M 1580.586914 613.473267 C 1591.198975 608.138794 1604.915527 605.412598 1621.736816 605.294556 L 1621.736816 601.294739 C 1621.736816 596.538086 1621.240479 592.827148 1620.255737 590.157837 C 1619.270996 587.492676 1617.472534 585.490723 1614.864258 584.156067 C 1612.251953 582.8255 1608.451538 582.154114 1603.467041 582.154114 C 1597.782593 582.154114 1592.680054 582.882446 1588.155273 584.331055 C 1583.630615 585.779602 1578.934937 587.663574 1574.064331 589.98291 L 1568.668823 578.850098 C 1570.4104 577.344543 1573.335938 575.541992 1577.457886 573.45459 C 1581.571655 571.367188 1586.474854 569.540161 1592.15918 567.973633 C 1597.8396 566.411133 1603.698975 565.625793 1609.729248 565.625793 C 1618.660645 565.625793 1625.651245 566.785461 1630.696777 569.104797 C 1635.742432 571.428223 1639.36377 575.13916 1641.569214 580.241699 C 1643.770508 585.348267 1644.873291 592.188293 1644.873291 600.769836 L 1644.873291 654.008789 L 1654.268555 654.008789 L 1654.268555 663.754028 C 1651.949219 664.335938 1648.641113 664.913696 1644.352417 665.495605 C 1640.05957 666.073364 1636.291748 666.362305 1633.044678 666.362305 C 1629.097656 666.362305 1626.460938 665.780396 1625.126343 664.624817 C 1623.791748 663.465149 1623.128418 661.088867 1623.128418 657.491821 L 1623.128418 652.792114 C 1619.995361 656.271118 1615.934448 659.404297 1610.949951 662.1875 C 1605.961304 664.970703 1600.333862 666.362305 1594.071655 666.362305 C 1588.733154 666.362305 1583.833984 665.231079 1579.370361 662.972778 C 1574.902588 660.710449 1571.338135 657.402344 1568.668823 653.052551 C 1565.999512 648.702759 1564.668945 643.457825 1564.668945 637.30957 C 1564.668945 626.754517 1569.974976 618.807739 1580.586914 613.473267 Z M 1613.558105 649.748535 C 1616.691284 648.299927 1619.413452 646.529907 1621.736816 644.442505 L 1621.736816 615.906555 C 1611.295776 615.906555 1603.495483 617.676575 1598.335938 621.216614 C 1593.172363 624.752563 1590.592651 629.305786 1590.592651 634.872192 C 1590.592651 640.438599 1591.898804 644.674438 1594.50708 647.571594 C 1597.115234 650.472778 1600.683838 651.921387 1605.208496 651.921387 C 1607.641846 651.921387 1610.425049 651.201172 1613.558105 649.748535 Z M 1590.767578 545.095581 L 1620.170288 508.907837 L 1635.481934 522.305054 C 1632.694702 526.943726 1627.27478 532.628174 1619.214111 539.354248 C 1611.149292 546.082336 1604.626709 550.489075 1599.638062 552.578491 L 1590.767578 545.095581 Z"/>
                <path id="path33" fill="#4ea98b" stroke="none" d="M 1674.800781 584.241516 L 1663.66394 581.112427 L 1663.66394 569.104797 L 1692.545776 565.450806 L 1693.06665 565.450806 L 1697.416382 568.933899 L 1697.416382 575.716919 L 1697.241455 579.891724 C 1701.302246 576.066895 1706.579834 572.758789 1713.073975 569.975586 C 1719.572144 567.192383 1726.123291 565.800781 1732.735352 565.800781 C 1739.811401 565.800781 1745.349365 567.106934 1749.353271 569.715149 C 1753.353027 572.323364 1756.22583 576.41272 1757.963257 581.979126 C 1759.704834 587.549622 1760.575562 595.089478 1760.575562 604.598755 L 1760.575562 652.617188 L 1771.1875 654.008789 L 1771.1875 664.449829 L 1726.298218 664.449829 L 1726.298218 654.008789 L 1735.693604 652.617188 L 1735.693604 604.598755 C 1735.693604 598.568481 1735.286621 593.840332 1734.476929 590.418274 C 1733.663086 587.000305 1732.186035 584.501953 1730.037598 582.939453 C 1727.893311 581.372864 1724.845581 580.587524 1720.906738 580.587524 C 1714.294678 580.587524 1707.218628 583.431763 1699.678711 589.116211 L 1699.678711 652.446289 L 1710.119873 654.008789 L 1710.119873 664.449829 L 1664.709717 664.449829 L 1664.709717 654.008789 L 1674.800781 652.446289 L 1674.800781 584.241516 Z"/>
                <path id="path34" fill="#4ea98b" stroke="none" d="M 919.594482 741.370422 L 915.796143 740.808899 L 915.796143 738.46106 L 929.252319 738.46106 L 929.252319 740.808899 L 924.611572 741.370422 L 924.611572 770.53302 L 936.70874 770.109863 L 939.473633 762.236328 L 942.334229 762.655396 L 940.694336 773.299927 L 915.702515 773.299927 L 915.702515 771.000977 L 919.594482 770.53302 L 919.594482 741.370422 Z"/>
                <path id="path35" fill="#4ea98b" stroke="none" d="M 950.071411 741.370422 L 945.709473 740.808899 L 945.709473 738.46106 L 959.495239 738.46106 L 959.495239 740.808899 L 955.135254 741.370422 L 955.135254 770.53302 L 959.495239 771.049805 L 959.495239 773.299927 L 945.758301 773.299927 L 945.758301 771.000977 L 950.071411 770.53302 L 950.071411 741.370422 Z"/>
                <path id="path36" fill="#4ea98b" stroke="none" d="M 968.168335 741.370422 L 964.416748 740.808899 L 964.416748 738.46106 L 973.138672 738.46106 L 988.751465 761.345215 L 991.37793 766.313477 L 991.37793 741.370422 L 987.298828 740.808899 L 987.298828 738.46106 L 998.362427 738.46106 L 998.362427 740.808899 L 994.612793 741.370422 L 994.612793 773.299927 L 990.907959 773.299927 L 974.967651 749.903137 L 971.356445 743.714172 L 971.356445 770.53302 L 975.809937 771.000977 L 975.809937 773.299927 L 964.416748 773.299927 L 964.416748 771.000977 L 968.168335 770.488281 L 968.168335 741.370422 Z"/>
                <path id="path37" fill="#4ea98b" stroke="none" d="M 1009.078125 771.566528 C 1006.624512 770.065063 1004.756836 767.993958 1003.475098 765.353149 C 1002.193359 762.712402 1001.55249 759.71759 1001.55249 756.372864 C 1001.55249 752.527649 1002.309326 749.23175 1003.827148 746.481079 C 1005.342773 743.730469 1007.444458 741.643066 1010.13208 740.222961 C 1012.821655 738.798828 1015.883545 738.086731 1019.321899 738.086731 C 1022.479492 738.086731 1026.121216 738.570923 1030.247192 739.543457 L 1029.82605 747.652954 L 1026.495605 747.652954 L 1025.370483 742.025513 C 1024.933105 741.683716 1024.19043 741.354126 1023.144775 741.040833 C 1022.096924 740.731567 1020.697266 740.572876 1018.94751 740.572876 C 1016.664795 740.572876 1014.648682 741.134399 1012.898926 742.261536 C 1011.147217 743.384583 1009.782104 745.056946 1008.797363 747.278625 C 1007.812744 749.496216 1007.320313 752.185852 1007.320313 755.343384 C 1007.320313 758.248657 1007.717041 760.905762 1008.514648 763.314575 C 1009.312134 765.71936 1010.530762 767.648071 1012.172607 769.104797 C 1013.8125 770.557434 1015.820557 771.285767 1018.196777 771.285767 C 1019.698242 771.285767 1021.120361 771.102661 1022.463135 770.744629 C 1023.807983 770.386536 1024.839478 769.910461 1025.557617 769.316406 L 1025.557617 758.859009 L 1019.651489 758.391113 L 1019.651489 755.624146 L 1033.341675 755.624146 L 1033.341675 758.391113 L 1030.621582 758.810181 L 1030.621582 771.424133 C 1029.933838 771.456665 1028.794556 771.721191 1027.199463 772.22168 C 1025.573975 772.722168 1024.041992 773.112793 1022.605591 773.393555 C 1021.167236 773.674316 1019.572144 773.816711 1017.82251 773.816711 C 1014.447266 773.816711 1011.531738 773.063965 1009.078125 771.566528 Z"/>
                <path id="path38" fill="#4ea98b" stroke="none" d="M 1041.943604 769.995911 C 1039.770752 767.542297 1038.684326 763.733704 1038.684326 758.578247 L 1038.684326 741.370422 L 1035.355835 740.808899 L 1035.355835 738.46106 L 1047.874146 738.46106 L 1047.874146 740.808899 L 1043.88855 741.415161 L 1043.88855 759.095032 C 1043.88855 763.343079 1044.647461 766.407043 1046.163086 768.282837 C 1047.678833 770.158691 1049.859863 771.094543 1052.704102 771.094543 C 1055.54834 771.094543 1057.68042 770.097656 1059.104614 768.095703 C 1060.526733 766.09375 1061.236816 763.188477 1061.236816 759.375793 L 1061.236816 741.415161 L 1057.300049 740.808899 L 1057.300049 738.46106 L 1068.223267 738.46106 L 1068.223267 740.808899 L 1064.80127 741.370422 L 1064.80127 759.139771 C 1064.80127 764.014465 1063.643555 767.65625 1061.330322 770.065063 C 1059.01709 772.473938 1055.938965 773.674316 1052.09375 773.674316 C 1047.499756 773.674316 1044.116455 772.449524 1041.943604 769.995911 Z"/>
                <path id="path39" fill="#4ea98b" stroke="none" d="M 1082.523804 738.180298 L 1087.681274 738.180298 L 1099.07251 770.53302 L 1101.98584 771.000977 L 1101.98584 773.299927 L 1089.603882 773.299927 L 1089.603882 771.000977 L 1093.49585 770.53302 L 1091.29248 763.595337 L 1077.600342 763.595337 L 1075.396973 770.53302 L 1079.429321 771.000977 L 1079.429321 773.299927 L 1068.316895 773.299927 L 1068.316895 771.000977 L 1071.224121 770.53302 L 1082.523804 738.180298 Z M 1085.477905 745.683594 L 1084.30603 741.557617 L 1083.180908 745.777161 L 1078.44458 760.82843 L 1090.401367 760.82843 L 1085.477905 745.683594 Z"/>
                <path id="path40" fill="#4ea98b" stroke="none" d="M 1123.29126 741.370422 L 1119.450073 740.808899 L 1119.450073 738.46106 L 1143.314819 738.46106 L 1143.969971 745.732422 L 1141.296631 745.732422 L 1139.9375 741.183228 L 1128.30835 740.902466 L 1128.30835 754.122681 L 1136.141113 753.984375 L 1136.796265 750.090332 L 1139.375977 750.090332 L 1139.375977 760.873169 L 1136.796265 760.873169 L 1136.141113 756.84082 L 1128.30835 756.702454 L 1128.30835 770.675415 L 1141.532593 770.20343 L 1144.018799 764.299316 L 1146.781616 765.141602 L 1145.422607 773.299927 L 1119.401245 773.299927 L 1119.401245 771.000977 L 1123.29126 770.53302 L 1123.29126 741.370422 Z"/>
                <path id="path41" fill="#4ea98b" stroke="none" d="M 1172.575073 771.586914 C 1170.154053 770.105774 1168.314819 768.018372 1167.065674 765.328735 C 1165.816406 762.643188 1165.189819 759.485657 1165.189819 755.856079 C 1165.189819 752.35675 1165.92627 749.264282 1167.395264 746.574707 C 1168.864136 743.885071 1170.878296 741.801758 1173.441772 740.316528 C 1176.005249 738.83136 1178.88208 738.086731 1182.068115 738.086731 C 1184.476929 738.086731 1187.369995 738.46106 1190.743164 739.213867 L 1192.289429 739.494629 L 1191.821533 747.933716 L 1188.680176 747.933716 L 1187.508301 741.980774 C 1187.068848 741.606445 1186.312012 741.284973 1185.233765 741.016418 C 1184.155518 740.751953 1182.837158 740.621704 1181.274658 740.621704 C 1179.272705 740.621704 1177.490479 741.191406 1175.927979 742.330688 C 1174.365479 743.474121 1173.136597 745.150513 1172.245483 747.372192 C 1171.358398 749.589844 1170.910889 752.246887 1170.910889 755.343384 C 1170.910889 758.28125 1171.301514 760.95459 1172.082764 763.359375 C 1172.864014 765.768188 1174.052124 767.680664 1175.647217 769.104797 C 1177.242188 770.524902 1179.21167 771.236938 1181.55542 771.236938 C 1183.211426 771.236938 1184.485107 771.094543 1185.376221 770.813782 C 1186.267334 770.53302 1187.02417 770.126099 1187.650757 769.597168 L 1189.620117 764.999146 L 1192.574219 765.377563 L 1191.447144 772.034485 C 1190.791992 772.067017 1189.823608 772.282715 1188.54187 772.689575 C 1187.414795 773.035461 1186.328369 773.308105 1185.282593 773.511536 C 1184.232788 773.714966 1182.930664 773.816711 1181.368164 773.816711 C 1177.929932 773.816711 1174.996094 773.072083 1172.575073 771.586914 Z"/>
                <path id="path42" fill="#4ea98b" stroke="none" d="M 1201.973633 769.995911 C 1199.800781 767.542297 1198.714355 763.733704 1198.714355 758.578247 L 1198.714355 741.370422 L 1195.385986 740.808899 L 1195.385986 738.46106 L 1207.902222 738.46106 L 1207.902222 740.808899 L 1203.918701 741.415161 L 1203.918701 759.095032 C 1203.918701 763.343079 1204.675537 766.407043 1206.193237 768.282837 C 1207.706909 770.158691 1209.887939 771.094543 1212.732178 771.094543 C 1215.576416 771.094543 1217.708496 770.097656 1219.13269 768.095703 C 1220.552734 766.09375 1221.264893 763.188477 1221.264893 759.375793 L 1221.264893 741.415161 L 1217.32605 740.808899 L 1217.32605 738.46106 L 1228.251343 738.46106 L 1228.251343 740.808899 L 1224.829346 741.370422 L 1224.829346 759.139771 C 1224.829346 764.014465 1223.673706 767.65625 1221.358398 770.065063 C 1219.047241 772.473938 1215.967041 773.674316 1212.121826 773.674316 C 1207.527832 773.674316 1204.142456 772.449524 1201.973633 769.995911 Z"/>
                <path id="path43" fill="#4ea98b" stroke="none" d="M 1235.095459 741.370422 L 1231.299072 740.808899 L 1231.299072 738.46106 L 1244.755249 738.46106 L 1244.755249 740.808899 L 1240.112549 741.370422 L 1240.112549 770.53302 L 1252.209717 770.109863 L 1254.976563 762.236328 L 1257.837158 762.655396 L 1256.197266 773.299927 L 1231.205444 773.299927 L 1231.205444 771.000977 L 1235.095459 770.53302 L 1235.095459 741.370422 Z"/>
                <path id="path44" fill="#4ea98b" stroke="none" d="M 1272.282104 740.947266 L 1264.217285 741.228027 L 1262.573486 751.030273 L 1259.480957 751.030273 L 1260.278564 738.46106 L 1289.48999 738.46106 L 1290.051514 751.030273 L 1287.097412 751.030273 L 1285.551147 741.228027 L 1277.4375 740.947266 L 1277.4375 770.53302 L 1284.094482 771.000977 L 1284.094482 773.299927 L 1266.186768 773.299927 L 1266.186768 771.000977 L 1272.282104 770.53302 L 1272.282104 740.947266 Z"/>
                <path id="path45" fill="#4ea98b" stroke="none" d="M 1298.840576 769.995911 C 1296.667725 767.542297 1295.581299 763.733704 1295.581299 758.578247 L 1295.581299 741.370422 L 1292.252808 740.808899 L 1292.252808 738.46106 L 1304.769043 738.46106 L 1304.769043 740.808899 L 1300.785522 741.415161 L 1300.785522 759.095032 C 1300.785522 763.343079 1301.542358 766.407043 1303.060059 768.282837 C 1304.57373 770.158691 1306.754761 771.094543 1309.598999 771.094543 C 1312.443237 771.094543 1314.575439 770.097656 1315.999512 768.095703 C 1317.419678 766.09375 1318.131714 763.188477 1318.131714 759.375793 L 1318.131714 741.415161 L 1314.192871 740.808899 L 1314.192871 738.46106 L 1325.118164 738.46106 L 1325.118164 740.808899 L 1321.696167 741.370422 L 1321.696167 759.139771 C 1321.696167 764.014465 1320.540527 767.65625 1318.225342 770.065063 C 1315.914063 772.473938 1312.833862 773.674316 1308.988647 773.674316 C 1304.394775 773.674316 1301.009277 772.449524 1298.840576 769.995911 Z"/>
                <path id="path46" fill="#4ea98b" stroke="none" d="M 1327.97876 771.000977 L 1331.868652 770.53302 L 1331.868652 741.370422 L 1328.214722 740.760071 L 1328.214722 738.46106 L 1334.354858 738.46106 C 1335.229736 738.46106 1336.417847 738.400024 1337.919312 738.273926 C 1339.481812 738.151855 1340.702515 738.086731 1341.577393 738.086731 C 1346.171265 738.086731 1349.446777 738.83136 1351.399902 740.316528 C 1353.353027 741.801758 1354.32959 744.137329 1354.32959 747.323364 C 1354.32959 749.545044 1353.711182 751.5755 1352.478271 753.418762 C 1351.241211 755.266113 1349.548584 756.515259 1347.391968 757.17041 C 1348.388916 757.70343 1349.320679 758.618958 1350.179199 759.912903 C 1351.037842 761.210938 1352.095703 763.017578 1353.344971 765.328735 C 1354.313354 767.07843 1355.057983 768.360168 1355.570679 769.17395 C 1356.087402 769.987793 1356.579834 770.439453 1357.047729 770.53302 L 1358.878784 771.000977 L 1358.878784 773.299927 L 1352.405029 773.299927 C 1351.908569 773.299927 1351.343018 772.758789 1350.720459 771.680481 C 1350.09375 770.602173 1349.263672 768.937988 1348.234253 766.687805 C 1347.107178 764.221985 1346.130615 762.256653 1345.304565 760.804016 C 1344.474487 759.351379 1343.652588 758.419556 1342.842773 758.016724 C 1339.498047 758.016724 1337.512451 758.000488 1336.885742 757.967896 L 1336.885742 770.53302 L 1341.528564 771.000977 L 1341.528564 773.299927 L 1327.97876 773.299927 L 1327.97876 771.000977 Z M 1347.200684 753.512329 C 1348.360352 752.202148 1348.938232 750.249023 1348.938232 747.652954 C 1348.938232 745.370239 1348.352295 743.628723 1347.18042 742.424316 C 1346.008545 741.223938 1343.982178 740.621704 1341.105347 740.621704 C 1340.108398 740.621704 1339.107422 740.682739 1338.106445 740.808899 C 1337.479858 740.869934 1337.072998 740.902466 1336.885742 740.902466 L 1336.885742 755.437012 C 1337.357788 755.469543 1338.326172 755.48175 1339.795166 755.48175 L 1342.468506 755.48175 C 1344.466309 755.48175 1346.045166 754.82666 1347.200684 753.512329 Z"/>
                <path id="path47" fill="#4ea98b" stroke="none" d="M 1372.428589 738.180298 L 1377.583984 738.180298 L 1388.977295 770.53302 L 1391.886597 771.000977 L 1391.886597 773.299927 L 1379.508667 773.299927 L 1379.508667 771.000977 L 1383.398682 770.53302 L 1381.193237 763.595337 L 1367.505127 763.595337 L 1365.299683 770.53302 L 1369.332031 771.000977 L 1369.332031 773.299927 L 1358.219604 773.299927 L 1358.219604 771.000977 L 1361.128906 770.53302 L 1372.428589 738.180298 Z M 1375.38269 745.683594 L 1374.210815 741.557617 L 1373.08374 745.777161 L 1368.347412 760.82843 L 1380.302124 760.82843 L 1375.38269 745.683594 Z"/>
                <path id="path48" fill="#4ea98b" stroke="none" d="M 1413.196045 741.370422 L 1409.541992 740.808899 L 1409.541992 738.46106 L 1415.682129 738.46106 C 1416.650635 738.46106 1418.042236 738.400024 1419.856934 738.273926 C 1421.667725 738.151855 1423.026733 738.086731 1423.934082 738.086731 C 1429.748779 738.086731 1434.070068 739.547485 1436.897949 742.473145 C 1439.725952 745.394653 1441.141968 749.496216 1441.141968 754.777832 C 1441.141968 758.468384 1440.413574 761.743958 1438.960938 764.604492 C 1437.508301 767.460938 1435.469727 769.690735 1432.845215 771.285767 C 1430.216675 772.87677 1427.201538 773.674316 1423.795776 773.674316 C 1423.042969 773.674316 1421.76123 773.613281 1419.950562 773.487122 C 1418.074707 773.360962 1416.66687 773.299927 1415.730957 773.299927 L 1409.30603 773.299927 L 1409.30603 771.000977 L 1413.196045 770.53302 L 1413.196045 741.370422 Z M 1422.387939 771.049805 L 1423.795776 771.049805 C 1426.139526 771.017212 1428.210693 770.423157 1430.005127 769.267578 C 1431.803589 768.111938 1433.203369 766.382629 1434.204346 764.087708 C 1435.201172 761.788696 1435.70166 759.001465 1435.70166 755.717773 C 1435.70166 750.777954 1434.631592 747.026367 1432.491211 744.462891 C 1430.350952 741.903442 1427.124268 740.621704 1422.811035 740.621704 C 1421.903687 740.621704 1420.825439 740.682739 1419.576172 740.808899 C 1419.043213 740.902466 1418.575195 740.947266 1418.168335 740.947266 L 1418.168335 770.675415 C 1419.262939 770.923645 1420.666748 771.049805 1422.387939 771.049805 Z"/>
                <path id="path49" fill="#4ea98b" stroke="none" d="M 1448.734741 741.370422 L 1444.893555 740.808899 L 1444.893555 738.46106 L 1468.758301 738.46106 L 1469.413452 745.732422 L 1466.740112 745.732422 L 1465.381104 741.183228 L 1453.751831 740.902466 L 1453.751831 754.122681 L 1461.584717 753.984375 L 1462.239746 750.090332 L 1464.81958 750.090332 L 1464.81958 760.873169 L 1462.239746 760.873169 L 1461.584717 756.84082 L 1453.751831 756.702454 L 1453.751831 770.675415 L 1466.976074 770.20343 L 1469.46228 764.299316 L 1472.225098 765.141602 L 1470.866089 773.299927 L 1444.844727 773.299927 L 1444.844727 771.000977 L 1448.734741 770.53302 L 1448.734741 741.370422 Z"/>
                <path id="path50" fill="#4ea98b" stroke="none" d="M 1488.338379 738.46106 L 1500.809937 738.46106 L 1500.809937 740.808899 L 1496.635132 741.370422 L 1504.370361 763.359375 L 1506.107788 769.080383 L 1507.654053 763.265747 L 1514.640503 741.370422 L 1510.937744 740.808899 L 1510.937744 738.46106 L 1521.390991 738.46106 L 1521.390991 740.808899 L 1518.39209 741.370422 L 1507.279663 773.674316 L 1503.198486 773.674316 L 1491.198975 741.370422 L 1488.338379 740.808899 L 1488.338379 738.46106 Z"/>
                <path id="path51" fill="#4ea98b" stroke="none" d="M 1534.098511 738.180298 L 1539.253906 738.180298 L 1550.647217 770.53302 L 1553.556519 771.000977 L 1553.556519 773.299927 L 1541.178589 773.299927 L 1541.178589 771.000977 L 1545.068604 770.53302 L 1542.863159 763.595337 L 1529.175049 763.595337 L 1526.969604 770.53302 L 1531.001953 771.000977 L 1531.001953 773.299927 L 1519.889526 773.299927 L 1519.889526 771.000977 L 1522.798828 770.53302 L 1534.098511 738.180298 Z M 1537.052612 745.683594 L 1535.880737 741.557617 L 1534.753662 745.777161 L 1530.017334 760.82843 L 1541.972046 760.82843 L 1537.052612 745.683594 Z"/>
                <path id="path52" fill="#4ea98b" stroke="none" d="M 1559.086304 741.370422 L 1555.289917 740.808899 L 1555.289917 738.46106 L 1568.746094 738.46106 L 1568.746094 740.808899 L 1564.103394 741.370422 L 1564.103394 770.53302 L 1576.200562 770.109863 L 1578.967529 762.236328 L 1581.828003 762.655396 L 1580.188232 773.299927 L 1555.196289 773.299927 L 1555.196289 771.000977 L 1559.086304 770.53302 L 1559.086304 741.370422 Z"/>
                <path id="path53" fill="#4ea98b" stroke="none" d="M 1588.716797 741.370422 L 1585.062866 740.808899 L 1585.062866 738.46106 L 1591.203003 738.46106 C 1592.171387 738.46106 1593.562988 738.400024 1595.377808 738.273926 C 1597.188477 738.151855 1598.547607 738.086731 1599.454956 738.086731 C 1605.269531 738.086731 1609.59082 739.547485 1612.418823 742.473145 C 1615.246826 745.394653 1616.662842 749.496216 1616.662842 754.777832 C 1616.662842 758.468384 1615.934448 761.743958 1614.481812 764.604492 C 1613.029175 767.460938 1610.990601 769.690735 1608.366089 771.285767 C 1605.737549 772.87677 1602.722412 773.674316 1599.31665 773.674316 C 1598.563843 773.674316 1597.282104 773.613281 1595.471436 773.487122 C 1593.595581 773.360962 1592.187744 773.299927 1591.251831 773.299927 L 1584.826904 773.299927 L 1584.826904 771.000977 L 1588.716797 770.53302 L 1588.716797 741.370422 Z M 1597.908691 771.049805 L 1599.31665 771.049805 C 1601.6604 771.017212 1603.731445 770.423157 1605.525879 769.267578 C 1607.324463 768.111938 1608.724121 766.382629 1609.725098 764.087708 C 1610.722046 761.788696 1611.222534 759.001465 1611.222534 755.717773 C 1611.222534 750.777954 1610.152344 747.026367 1608.012085 744.462891 C 1605.871826 741.903442 1602.64502 740.621704 1598.331909 740.621704 C 1597.424561 740.621704 1596.346191 740.682739 1595.097046 740.808899 C 1594.563965 740.902466 1594.096069 740.947266 1593.689209 740.947266 L 1593.689209 770.675415 C 1594.783691 770.923645 1596.1875 771.049805 1597.908691 771.049805 Z"/>
                <path id="path54" fill="#4ea98b" stroke="none" d="M 1624.259644 741.370422 L 1620.418457 740.808899 L 1620.418457 738.46106 L 1644.283203 738.46106 L 1644.938354 745.732422 L 1642.265015 745.732422 L 1640.906006 741.183228 L 1629.276733 740.902466 L 1629.276733 754.122681 L 1637.109619 753.984375 L 1637.764648 750.090332 L 1640.344482 750.090332 L 1640.344482 760.873169 L 1637.764648 760.873169 L 1637.109619 756.84082 L 1629.276733 756.702454 L 1629.276733 770.675415 L 1642.500977 770.20343 L 1644.987183 764.299316 L 1647.75 765.141602 L 1646.390991 773.299927 L 1620.369629 773.299927 L 1620.369629 771.000977 L 1624.259644 770.53302 L 1624.259644 741.370422 Z"/>
                <path id="path55" fill="#4ea98b" stroke="none" d="M 1657.011108 771.611328 C 1654.805664 770.142395 1653.141479 768.071289 1652.018433 765.397949 C 1650.891357 762.728638 1650.329834 759.624023 1650.329834 756.092102 C 1650.329834 752.499146 1651.009277 749.341614 1652.368408 746.619446 C 1653.727417 743.901367 1655.595093 741.801758 1657.971436 740.316528 C 1660.347656 738.83136 1663.020996 738.086731 1665.987305 738.086731 C 1670.866089 738.086731 1674.593262 739.628906 1677.173096 742.705078 C 1679.748779 745.785278 1681.038574 750.045532 1681.038574 755.48175 C 1681.038574 759.139771 1680.342773 762.35022 1678.955322 765.117188 C 1677.563721 767.884094 1675.655273 770.024414 1673.234253 771.542114 C 1670.809082 773.059875 1668.099121 773.816711 1665.096191 773.816711 C 1661.910156 773.816711 1659.212402 773.0802 1657.011108 771.611328 Z M 1658.532959 744.487305 C 1656.783203 747.128052 1655.908447 750.997681 1655.908447 756.092102 C 1655.908447 760.779602 1656.758789 764.494629 1658.463745 767.229004 C 1660.168701 769.963379 1662.549072 771.330566 1665.613037 771.330566 C 1668.615967 771.330566 1670.996338 769.971497 1672.762207 767.253418 C 1674.528198 764.53125 1675.415283 760.625 1675.415283 755.530579 C 1675.415283 750.810547 1674.568848 747.128052 1672.880249 744.487305 C 1671.19165 741.846497 1668.803101 740.524048 1665.706543 740.524048 C 1662.675171 740.524048 1660.282593 741.846497 1658.532959 744.487305 Z"/>
                <path id="path56" fill="#4ea98b" stroke="none" d="M 1684.741455 771.000977 L 1688.631348 770.53302 L 1688.631348 741.370422 L 1684.977417 740.760071 L 1684.977417 738.46106 L 1691.117554 738.46106 C 1691.992432 738.46106 1693.180542 738.400024 1694.682007 738.273926 C 1696.244507 738.151855 1697.46521 738.086731 1698.340088 738.086731 C 1702.93396 738.086731 1706.209473 738.83136 1708.162598 740.316528 C 1710.115723 741.801758 1711.092285 744.137329 1711.092285 747.323364 C 1711.092285 749.545044 1710.473877 751.5755 1709.240967 753.418762 C 1708.003906 755.266113 1706.311279 756.515259 1704.154663 757.17041 C 1705.151611 757.70343 1706.083374 758.618958 1706.941895 759.912903 C 1707.800537 761.210938 1708.858398 763.017578 1710.107666 765.328735 C 1711.07605 767.07843 1711.820679 768.360168 1712.333374 769.17395 C 1712.850098 769.987793 1713.342529 770.439453 1713.810425 770.53302 L 1715.641479 771.000977 L 1715.641479 773.299927 L 1709.167725 773.299927 C 1708.671265 773.299927 1708.105713 772.758789 1707.483154 771.680481 C 1706.856445 770.602173 1706.026367 768.937988 1704.996948 766.687805 C 1703.869873 764.221985 1702.893311 762.256653 1702.067261 760.804016 C 1701.237183 759.351379 1700.415283 758.419556 1699.605469 758.016724 C 1696.260742 758.016724 1694.275146 758.000488 1693.648438 757.967896 L 1693.648438 770.53302 L 1698.29126 771.000977 L 1698.29126 773.299927 L 1684.741455 773.299927 L 1684.741455 771.000977 Z M 1703.963379 753.512329 C 1705.123047 752.202148 1705.700928 750.249023 1705.700928 747.652954 C 1705.700928 745.370239 1705.11499 743.628723 1703.943115 742.424316 C 1702.77124 741.223938 1700.744873 740.621704 1697.868042 740.621704 C 1696.871094 740.621704 1695.870117 740.682739 1694.869141 740.808899 C 1694.242554 740.869934 1693.835693 740.902466 1693.648438 740.902466 L 1693.648438 755.437012 C 1694.120483 755.469543 1695.088867 755.48175 1696.557861 755.48175 L 1699.231201 755.48175 C 1701.229004 755.48175 1702.807861 754.82666 1703.963379 753.512329 Z"/>
                <path id="path57" fill="#4ea98b" stroke="none" d="M 1717.749268 771.000977 L 1721.63916 770.53302 L 1721.63916 741.370422 L 1717.985229 740.760071 L 1717.985229 738.46106 L 1724.125366 738.46106 C 1725.000244 738.46106 1726.188354 738.400024 1727.689819 738.273926 C 1729.252319 738.151855 1730.473022 738.086731 1731.3479 738.086731 C 1735.941772 738.086731 1739.217285 738.83136 1741.17041 740.316528 C 1743.123535 741.801758 1744.100098 744.137329 1744.100098 747.323364 C 1744.100098 749.545044 1743.481689 751.5755 1742.248779 753.418762 C 1741.011719 755.266113 1739.319092 756.515259 1737.162476 757.17041 C 1738.159424 757.70343 1739.091187 758.618958 1739.949707 759.912903 C 1740.80835 761.210938 1741.866211 763.017578 1743.115479 765.328735 C 1744.083862 767.07843 1744.828491 768.360168 1745.341187 769.17395 C 1745.85791 769.987793 1746.350342 770.439453 1746.818237 770.53302 L 1748.649292 771.000977 L 1748.649292 773.299927 L 1742.175537 773.299927 C 1741.679077 773.299927 1741.113525 772.758789 1740.490967 771.680481 C 1739.864258 770.602173 1739.03418 768.937988 1738.004761 766.687805 C 1736.877686 764.221985 1735.901123 762.256653 1735.075073 760.804016 C 1734.244995 759.351379 1733.423096 758.419556 1732.613281 758.016724 C 1729.268555 758.016724 1727.282959 758.000488 1726.65625 757.967896 L 1726.65625 770.53302 L 1731.299072 771.000977 L 1731.299072 773.299927 L 1717.749268 773.299927 L 1717.749268 771.000977 Z M 1736.971191 753.512329 C 1738.130859 752.202148 1738.70874 750.249023 1738.70874 747.652954 C 1738.70874 745.370239 1738.122803 743.628723 1736.950928 742.424316 C 1735.779053 741.223938 1733.752686 740.621704 1730.875854 740.621704 C 1729.878906 740.621704 1728.87793 740.682739 1727.876953 740.808899 C 1727.250366 740.869934 1726.843506 740.902466 1726.65625 740.902466 L 1726.65625 755.437012 C 1727.128296 755.469543 1728.09668 755.48175 1729.565674 755.48175 L 1732.239014 755.48175 C 1734.236816 755.48175 1735.815674 754.82666 1736.971191 753.512329 Z"/>
                <path id="path58" fill="#4ea98b" stroke="none" d="M 1762.199097 738.180298 L 1767.354492 738.180298 L 1778.747803 770.53302 L 1781.657104 771.000977 L 1781.657104 773.299927 L 1769.279175 773.299927 L 1769.279175 771.000977 L 1773.169189 770.53302 L 1770.963745 763.595337 L 1757.275635 763.595337 L 1755.07019 770.53302 L 1759.102539 771.000977 L 1759.102539 773.299927 L 1747.990112 773.299927 L 1747.990112 771.000977 L 1750.899414 770.53302 L 1762.199097 738.180298 Z M 1765.153198 745.683594 L 1763.981323 741.557617 L 1762.854248 745.777161 L 1758.11792 760.82843 L 1770.072632 760.82843 L 1765.153198 745.683594 Z"/>
                <path id="path59" fill="#4ea98b" stroke="none" d="M 1790.283447 773.393555 C 1789.001709 773.112793 1787.59375 772.738403 1786.063843 772.266418 C 1785.123901 771.924622 1784.424072 771.737427 1783.952026 771.704895 L 1784.330444 763.221008 L 1787.329346 763.221008 L 1788.126831 769.316406 C 1788.655762 769.816895 1789.526611 770.260376 1790.726929 770.651001 C 1791.931396 771.041626 1793.253784 771.236938 1794.690186 771.236938 C 1797.066406 771.236938 1798.869019 770.703918 1800.105957 769.641907 C 1801.338867 768.579895 1801.957397 767.110962 1801.957397 765.235168 C 1801.957397 764.014465 1801.623779 762.96875 1800.948242 762.093872 C 1800.276855 761.219055 1799.385742 760.470337 1798.279053 759.84375 C 1797.168213 759.217102 1795.642334 758.48468 1793.705444 757.638306 C 1791.955811 756.857056 1790.429932 756.063599 1789.135986 755.249817 C 1787.837891 754.436035 1786.710815 753.349609 1785.758667 751.99054 C 1784.806519 750.63147 1784.330444 748.995728 1784.330444 747.091431 C 1784.330444 745.370239 1784.790283 743.832153 1785.713867 742.473145 C 1786.633545 741.114075 1787.964111 740.039856 1789.69751 739.258606 C 1791.430908 738.477356 1793.457275 738.086731 1795.768433 738.086731 C 1797.204834 738.086731 1798.482422 738.196594 1799.589233 738.416321 C 1800.700073 738.636047 1801.957397 738.933105 1803.365234 739.307434 C 1803.987793 739.527161 1804.520874 739.665527 1804.960327 739.730591 L 1804.679565 747.604126 L 1801.819092 747.604126 L 1800.87915 741.838379 C 1800.565796 741.525024 1799.918823 741.228027 1798.934082 740.947266 C 1797.949463 740.666504 1796.879272 740.524048 1795.723633 740.524048 C 1793.567139 740.524048 1791.931396 740.979797 1790.824585 741.887207 C 1789.713745 742.794556 1789.15625 744.104797 1789.15625 745.825989 C 1789.15625 747.075195 1789.494019 748.120911 1790.165405 748.967285 C 1790.836792 749.80957 1791.675049 750.529785 1792.676025 751.12384 C 1793.672852 751.717896 1795.267944 752.527649 1797.457031 753.561157 C 1799.487549 754.529602 1801.143555 755.404419 1802.425293 756.185669 C 1803.707031 756.966919 1804.809814 757.99231 1805.733398 759.257813 C 1806.653076 760.523254 1807.116943 762.032837 1807.116943 763.782532 C 1807.116943 765.438599 1806.653076 767.033691 1805.733398 768.563599 C 1804.809814 770.097656 1803.401855 771.35498 1801.513916 772.339661 C 1799.621826 773.324341 1797.330933 773.816711 1794.645386 773.816711 C 1793.017822 773.816711 1791.565186 773.674316 1790.283447 773.393555 Z"/>
            </g>
            <g id="g2">
                <path id="path60" fill="#4ea98b" stroke="none" d="M 745.339172 475.927002 C 748.711365 476.548523 750.397949 474.03186 751.23822 471.851868 C 752.389709 468.878448 753.743713 465.877045 755.160706 462.804932 L 758.841125 453.402466 C 759.473877 451.758087 759.982483 450.106567 760.257141 448.433197 C 760.440247 446.778137 760.464661 445.0849 760.340576 443.313354 C 759.3172 425.699646 751.973694 408.579285 741.66687 394.105286 L 735.958069 386.496765 L 729.502563 379.514343 C 727.40094 377.138062 725.019531 375.046082 722.606628 372.992737 C 720.177429 370.96283 717.888611 368.77063 715.306824 366.944641 C 705.17395 359.361572 693.976013 353.385193 682.312195 348.891479 C 677.205627 347.13623 672.377747 344.749207 667.375916 342.702515 C 664.838867 341.801208 662.277405 340.924866 659.673279 340.18634 C 658.371155 339.817078 657.058899 339.482422 655.737488 339.197083 C 654.398804 338.991089 653.038757 338.894409 651.675598 338.82782 C 648.179321 338.688416 644.700317 338.491577 641.281311 337.992126 C 626.94519 336.507446 612.151306 336.205322 597.973816 339.728088 C 585.512512 343.061584 573.329895 347.179932 561.728088 352.865906 C 550.377625 358.875305 539.398376 366.066772 530.702942 375.638123 C 530.090515 376.264221 529.452698 376.893372 528.718262 377.373535 C 514.465515 387.465698 505.453674 403.219879 499.216919 419.141418 C 498.565857 411.862457 497.879211 404.583008 497.501831 397.304047 C 496.975891 387.183411 495.903748 377.080078 496.690063 366.927856 C 497.602539 355.153198 495.548706 343.34137 494.729797 331.546326 C 493.65863 316.114075 492.694275 300.680298 491.358643 285.25116 C 490.776794 278.516418 489.887695 271.792358 489.989441 265.044434 C 490.094177 258.111877 489.573364 251.190491 490.28949 244.242615 C 491.094177 236.425049 488.354675 228.566772 491.740112 220.750732 C 492.371826 219.294006 490.708618 217.848511 486.817627 217.490417 C 483.475952 217.183228 481.664246 218.434937 480.717163 219.47406 C 478.110962 222.330505 474.755066 225.04303 471.275024 227.729065 C 469.500916 229.098267 468.38092 230.462952 467.743103 232.003052 C 464.591675 239.61261 464.174622 247.309631 464.059631 254.963989 C 463.895874 265.848083 464.979248 276.742859 466.26709 287.619812 C 466.825562 292.327148 464.118652 296.955139 465.335266 301.643677 C 465.724915 303.144104 466.083984 304.657288 466.033142 306.161804 C 465.820496 312.461121 464.679138 318.771667 465.298645 325.055237 C 466.396301 336.202271 463.873474 347.336609 465.291565 358.474487 C 465.339355 358.853943 465.373962 359.242554 465.225403 359.614868 C 462.829773 365.612061 463.339417 371.658081 464.006775 377.66803 C 462.381165 376.039917 460.684387 374.485046 458.929626 372.992737 C 456.500427 370.96283 454.211609 368.77063 451.629822 366.944641 C 441.497009 359.361572 430.299072 353.385193 418.635254 348.891479 C 413.527649 347.13623 408.700745 344.749207 403.697937 342.702515 C 401.160889 341.801208 398.600464 340.924866 395.996277 340.18634 C 394.694214 339.817078 393.381958 339.482422 392.059509 339.197083 C 390.721863 338.991089 389.361755 338.894409 387.998657 338.82782 C 384.50238 338.688416 381.022339 338.491577 377.603363 337.992126 C 363.268219 336.507446 348.474335 336.205322 334.295868 339.728088 C 321.835541 343.061584 309.652924 347.179932 298.051147 352.865906 C 286.699615 358.875305 275.721436 366.066772 267.024933 375.638123 C 266.413574 376.264221 265.77475 376.893372 265.04129 377.373535 C 249.452911 388.411255 240.09317 406.220276 233.825897 423.614777 C 229.098724 436.164124 226.633911 449.402649 225.52713 462.59436 C 224.939178 475.834412 225.911652 489.080566 229.16687 501.800812 C 229.73349 504.661835 230.07019 507.54422 230.23703 510.470856 C 230.537109 513.355774 230.702911 516.305298 232.338654 518.718262 C 239.475708 530.460388 244.279175 542.956299 252.650146 553.481812 C 261.533813 564.587158 271.63208 574.484009 282.716064 583.168823 C 293.812256 591.799194 306.269531 599.019653 319.806122 603.184814 C 324.584137 605.041748 329.897247 605.107422 334.534912 607.128174 C 337.826752 608.544678 341.313873 608.93988 344.744049 609.400208 C 346.468292 609.587402 348.195587 609.699768 349.922882 609.746582 C 351.661377 609.65094 353.402924 609.466309 355.139374 609.236938 C 357.904266 608.86615 360.736298 609.223206 363.535767 609.396118 L 372.478424 609.215576 L 376.964508 609.127563 C 378.455811 609.036499 379.937958 608.809204 381.426178 608.645874 C 384.398621 608.285767 387.374084 607.891113 390.33429 607.432861 C 393.255798 606.78125 396.141785 605.943054 399.003296 605.079956 C 412.201111 600.724548 425.929993 596.781677 437.43103 588.503296 C 439.763611 587.045044 441.829651 585.210938 444.083862 583.648926 C 446.255676 581.978638 448.634033 580.560059 450.695007 578.749878 C 454.853516 575.183899 459.325378 571.893555 463.012878 567.776245 C 465.443115 565.435547 467.610901 562.863403 469.644348 560.182983 C 469.920044 563.342529 470.314758 566.50415 470.539551 569.663269 C 470.952576 575.480408 471.351318 581.297607 471.812134 587.912231 C 470.134705 589.728027 473.940247 592.07843 474.418335 594.594604 C 474.855774 596.893555 477.832214 597.045654 482.761841 595.6073 C 491.484802 593.062134 495.825378 589.501709 498.336975 585.496277 C 503.046875 577.985413 504.708069 570.293457 504.969482 562.601501 C 505.306213 552.66748 504.227905 542.745239 503.741638 532.808228 C 507.502441 540.017944 511.261169 547.111816 516.327087 553.481812 C 525.210754 564.587158 535.309021 574.484009 546.393005 583.168823 C 557.489197 591.799194 569.94751 599.019653 583.48407 603.184814 C 588.262146 605.041748 593.575256 605.107422 598.211853 607.128174 C 601.503723 608.544678 604.991882 608.93988 608.421021 609.400208 C 610.145264 609.587402 611.872559 609.699768 613.599854 609.746582 C 615.338318 609.65094 617.079895 609.466309 618.816345 609.236938 C 621.581238 608.86615 624.413269 609.223206 627.212708 609.396118 L 636.155396 609.215576 L 640.641479 609.127563 C 642.133789 609.036499 643.614929 608.809204 645.103149 608.645874 C 648.076599 608.285767 651.051025 607.891113 654.01123 607.432861 C 656.339722 606.914063 658.638733 606.265015 660.926514 605.590576 C 649.051086 620.411987 636.836975 634.969849 623.4245 648.569519 C 609.300964 662.999268 593.594543 676.049072 576.41217 686.845154 C 570.049255 691.121704 563.29364 694.756348 556.849365 698.934204 L 546.847717 704.644043 L 541.859131 707.547241 L 536.747437 710.223633 L 526.514893 715.621216 L 516.024963 720.525879 C 512.544983 722.224182 508.985596 723.73175 505.37738 725.122314 C 501.781433 726.546509 498.192566 728.010315 494.559937 729.353088 C 477.905457 735.217529 460.859375 740.420288 443.197815 742.680664 C 422.78363 745.25885 402.33783 748.840088 381.53299 749.502319 C 354.361176 750.508911 327.022491 748.081726 300.08667 742.98584 C 294.20694 741.865845 288.287567 740.848022 282.495331 739.290649 C 276.66748 737.869507 270.834564 736.386353 265.218292 734.220154 C 259.39859 732.142944 253.533112 730.207092 247.849731 727.77124 L 239.289551 724.212402 C 236.458527 722.971863 233.740448 721.470947 231.005035 720.019775 C 227.940063 718.355591 224.780487 716.893799 221.583252 715.490479 L 212.191986 710.85437 C 205.884003 707.839722 199.984955 704.011292 194.924103 698.98761 C 193.042206 697.12146 189.967041 697.217041 187.323212 700.166077 C 185.051666 702.698547 186.029266 705.397827 187.160431 707.183105 C 190.259003 712.083191 192.835693 717.545837 195.432739 723.159546 C 196.797882 725.94989 198.545532 728.117676 200.805878 730.058594 C 203.60434 732.446045 206.513672 734.696228 209.501343 736.833984 C 212.513428 738.923401 215.698456 740.716797 218.881439 742.527039 C 222.085785 744.294006 225.303345 746.05896 228.613495 747.619873 L 238.693451 751.956421 C 257.937836 759.809631 278.167938 765.287537 298.62793 768.457275 C 303.016357 769.310303 307.292877 770.479614 311.553131 771.827454 C 315.824585 773.101074 320.118408 774.39502 324.647217 774.337524 C 327.535187 774.357361 330.430298 774.407227 333.254181 774.859375 C 339.150177 775.932068 345.101105 776.636536 351.048981 777.469666 C 356.991791 778.374023 362.989502 778.666992 368.977051 778.631836 C 390.129822 778.339905 411.497192 779.97821 432.456665 776.017517 C 433.163635 775.864441 433.890991 775.722046 434.611206 775.765747 C 442.399292 776.16095 450.194519 775.588745 457.722168 773.748535 C 461.503296 772.909302 465.253906 771.950562 468.986206 770.977539 C 472.679871 769.856567 476.366394 768.738037 480.035583 767.624146 C 501.076477 761.395508 521.730774 753.690369 541.021912 743.441528 C 545.27301 741.070313 550.805847 741.616577 554.439514 738.455994 C 562.993591 730.595154 573.636047 726.749451 582.676392 720.039673 C 601.8974 705.945618 622.229187 693.424744 639.679138 677.104492 C 642.772644 674.116821 645.58429 670.759338 649.00531 668.251343 C 653.88916 664.772339 657.798462 660.456604 660.917358 655.377441 C 662.117737 653.313965 663.915222 651.680786 665.55603 649.960571 C 672.683899 642.785889 679.688721 635.397095 685.710876 627.27179 C 689.009827 622.338135 692.763489 617.784424 696.540527 613.223022 C 700.192444 608.579285 703.670471 603.789063 706.786316 598.762268 C 711.506348 590.92334 716.739075 584.241516 722.032898 576.950317 C 725.017517 572.771484 727.779358 568.345947 730.432312 563.766235 C 733.640747 560.011597 736.442261 555.909485 739.211243 551.828247 C 742.533569 545.914978 745.913879 540.069336 748.421448 533.801514 C 751.2677 527.979309 753.00824 521.707397 755.087463 515.392822 C 756.568604 508.882935 758.260315 502.21637 758.86554 494.927246 C 759.939758 493.060059 759.938782 490.706146 759.247009 488.163025 C 758.582764 485.61377 757.648926 482.919067 757.542114 480.205048 C 757.345764 475.192535 754.379456 475.030792 749.30542 477.895386 C 744.816284 480.399353 741.399353 483.150513 738.769714 486.095459 C 736.093323 489.036835 733.657043 492.116058 731.969421 495.389069 C 726.253479 505.199463 721.104126 514.268799 715.636414 523.02832 C 711.523621 528.511841 707.618408 534.101624 703.637878 540.099854 C 699.242371 545.515747 694.459229 550.629456 689.102356 555.194885 C 680.279724 562.688477 670.048218 568.903381 658.796387 572.176392 C 640.10437 577.712769 619.795959 579.317017 600.379639 574.793274 C 590.723877 572.553772 581.149475 569.145996 572.555725 563.869019 C 563.930481 558.737427 555.797546 552.425415 549.37561 544.582397 C 539.406555 533.039124 531.315308 519.765503 526.45282 505.0896 C 521.514099 490.504211 519.627075 474.520142 521.65448 458.877838 C 521.97998 454.366333 523.218994 450.033325 524.117249 445.604736 C 524.477356 443.359131 525.440674 441.296661 526.069336 439.124817 C 526.836365 437.002319 527.346985 434.767426 528.326599 432.723267 C 530.257385 428.631866 531.891052 424.35788 534.4505 420.578278 C 535.666077 418.658722 536.752502 416.650665 538.106506 414.823181 L 542.368774 409.489197 C 555.934875 393.542786 572.493713 379.312927 592.768555 371.642334 C 619.126587 361.760742 649.715393 362.462158 676.358215 373.85791 C 687.970154 378.788025 699.176208 385.453552 708.253174 394.591064 C 717.468445 403.970612 725.637024 414.64566 730.664246 426.88269 L 732.898132 431.968964 L 734.863464 437.170166 C 735.525696 438.902039 736.286621 440.605957 736.906128 442.357666 L 738.446228 447.719604 C 738.937561 449.515045 739.459412 451.306427 739.860229 453.122742 C 740.118591 454.968536 740.340393 456.820435 740.506165 458.674896 C 740.671997 460.529358 740.78186 462.385834 740.816467 464.237732 C 740.679138 466.107971 740.424805 467.97818 740.099304 469.829071 C 739.604919 472.57312 741.41156 475.207275 745.339172 475.927002 Z M 448.062317 529.160828 C 441.705505 538.736206 434.272461 547.655029 425.425415 555.194885 C 416.602783 562.688477 406.371277 568.903381 395.119446 572.176392 C 376.427399 577.712769 356.118988 579.317017 336.70166 574.793274 C 327.046906 572.553772 317.472534 569.145996 308.877777 563.869019 C 300.252472 558.737427 292.119537 552.425415 285.698639 544.582397 C 275.729584 533.039124 267.637329 519.765503 262.775879 505.0896 C 257.837128 490.504211 255.950104 474.520142 257.977509 458.877838 C 258.303009 454.366333 259.541016 450.033325 260.440277 445.604736 C 260.799347 443.359131 261.763702 441.296661 262.391357 439.124817 C 263.158356 437.002319 263.670044 434.767426 264.648651 432.723267 C 266.580414 428.631866 268.214111 424.35788 270.773529 420.578278 C 271.989136 418.658722 273.075562 416.650665 274.429535 414.823181 L 278.691803 409.489197 C 292.257904 393.542786 308.816742 379.312927 329.091583 371.642334 C 355.449615 361.760742 386.038391 362.462158 412.681274 373.85791 C 424.293213 378.788025 435.49823 385.453552 444.576233 394.591064 C 453.791504 403.970612 461.960022 414.64566 466.987305 426.88269 L 467.623108 428.331787 C 469.413452 433.447021 468.383972 438.604492 469.276123 443.728394 C 471.478455 456.373352 469.528381 469.042236 470.131653 481.698883 C 470.239441 483.982117 471.077698 486.298401 470.384949 488.540405 C 469.956665 489.927429 469.839661 491.295654 469.905823 492.659271 C 469.319885 493.555969 468.770569 494.46286 468.292419 495.389069 C 461.235779 507.500977 455.073242 518.508179 448.062317 529.160828 Z"/>
                <path id="path61" fill="#4ea98b" stroke="none" d="M 169.220184 673.456055 C 156.064056 657.567139 142.223297 642.940552 128.58194 628.025085 C 104.237061 600.93158 81.366165 571.692139 66.373901 537.914307 C 53.547363 509.823364 43.788864 480.351013 37.378128 449.978394 C 31.469925 419.568146 28.929855 388.14624 32.267456 357.111877 C 34.049683 339.312012 36.782028 321.507568 40.678101 303.934998 C 44.670822 305.814392 48.689987 306.141418 52.691849 306.236572 C 59.579666 306.40033 66.473587 305.316956 73.356323 304.028625 C 76.335861 303.470642 79.264526 306.177551 82.231857 304.960388 C 83.180954 304.571289 84.138184 304.212219 85.090332 304.263062 C 89.07695 304.475708 93.070679 305.616516 97.046097 304.997559 C 104.100754 303.899414 111.14624 306.423218 118.194778 305.004639 C 118.43486 304.956848 118.68103 304.922241 118.916016 305.070801 C 124.017532 308.290894 129.176025 306.264526 134.257202 305.656738 C 141.543793 304.78595 148.844604 304.220886 156.128143 302.590698 C 157.755737 302.226013 159.349762 305.051453 160.893951 303.718872 C 164.623199 300.500793 168.398224 302.050537 172.144775 301.019592 C 180.146484 298.817749 188.163452 300.767273 196.172272 300.164551 C 197.617798 300.056213 199.083649 299.219055 200.502716 299.911255 C 202.501617 300.887329 204.443573 300.459595 206.410919 299.171753 C 207.194214 298.659058 208.013092 298.876709 208.815704 298.921509 C 212.230621 299.114258 215.651642 299.976379 219.058441 299.437744 C 223.054199 298.805542 227.029633 300.556702 231.013184 300.070984 C 234.137177 299.689514 237.246918 300.530762 240.361725 300.863953 C 244.182526 301.272339 248.012482 300.186462 251.838379 299.757141 C 255.518799 299.343628 259.200226 298.944885 263.38623 298.48407 C 264.534698 300.161011 266.022949 296.356506 267.61496 295.87738 C 269.069611 295.439941 269.165253 292.464478 268.255829 287.533875 C 266.644501 278.810913 264.392303 274.470825 261.8573 271.958679 C 257.104706 267.249329 252.236115 265.587646 247.368561 265.326233 C 238.55307 264.854187 229.750763 267.186279 220.917969 266.725952 C 206.091522 265.955383 191.271149 270.081848 176.424347 269.526978 C 165.209137 269.107849 153.987823 271.873779 142.76651 272.794373 C 136.361908 273.320313 129.968475 274.392456 123.54451 273.60614 C 116.09314 272.694153 108.618362 274.747009 101.153763 275.566406 C 91.388138 276.637573 81.621506 277.601929 71.85791 278.936523 C 67.596634 279.519409 63.341476 280.408508 59.071045 280.306274 C 54.965408 280.20813 50.866898 280.620605 46.755173 280.092651 C 52.610474 259.864563 60.197144 240.102905 69.905807 221.197266 C 76.000168 209.066528 82.835083 197.280151 90.58757 186.096497 L 96.298416 177.625305 L 99.178268 173.40271 C 100.211792 172.050232 101.326706 170.760376 102.402954 169.440002 C 106.747635 164.189453 111.152344 158.978577 115.638428 153.841431 C 137.277435 130.836792 159.842133 108.31073 185.953979 89.85321 C 220.21402 66.037781 258.797394 48.262329 299.381714 37.102051 C 303.816925 35.905762 308.215546 34.507019 312.686371 33.43689 L 326.223969 30.740112 C 330.745636 29.862732 335.27243 28.963501 339.818512 28.177185 L 353.608398 26.919312 L 367.792969 25.699158 L 382.02536 25.520081 L 396.266907 25.471252 C 401.005249 25.783081 405.737488 26.296753 410.465698 26.800842 C 415.780823 27.423889 421.127502 27.683777 426.465027 28.126831 L 442.406433 30.244751 L 450.367432 31.423706 L 454.331665 32.097656 L 458.216553 33.15863 C 463.382141 34.625 468.490784 36.314148 473.464172 38.362427 C 477.163879 39.888306 481.414978 39.184326 483.437317 35.668213 C 485.174744 32.649536 482.266418 30.098755 479.662292 28.505737 C 472.524231 24.133057 465.79303 19.083923 458.938782 13.892395 C 455.420105 11.378235 451.677673 9.79187 447.364502 8.442444 C 442.028015 6.82251 436.614197 5.368835 431.153564 4.048462 C 425.69397 2.71637 420.104187 2.265198 414.537781 1.503784 C 408.961182 0.838989 403.362244 0.273926 397.759216 -0.2276 L 380.908417 -0.324219 L 368.934326 -0.241821 C 364.943634 -0.197571 360.978394 0.386353 357.00296 0.703735 C 349.069427 1.578552 341.092133 2.080566 333.237915 3.450317 L 309.787201 8.054382 C 302.010284 9.703369 294.438873 12.262268 286.798309 14.358276 C 283.502411 15.318604 280.167847 16.063721 276.820068 16.749878 L 266.928314 19.34082 C 260.328369 21.048279 253.709106 22.819824 247.430634 25.589783 C 243.520294 27.645142 239.581512 29.683228 235.514526 31.335205 L 222.680878 36.417908 C 218.322968 37.947876 214.318024 40.253967 210.123901 42.156738 L 197.741913 48.290771 C 195.699249 49.351257 193.635254 50.373108 191.639404 51.513428 L 185.853271 55.277771 C 179.082428 59.832031 172.145782 64.089722 165.279327 68.460388 L 145.390015 82.65564 L 140.42276 86.222595 L 135.744415 90.154297 L 126.448776 98.101563 L 117.293503 106.207581 C 114.435013 109.112305 111.707764 112.153381 108.97847 115.181274 C 108.237915 116.008789 107.468872 116.846985 106.603195 117.522949 C 101.940109 121.207458 97.364502 125.060791 93.161209 129.266113 C 89.181717 133.670837 85.362961 138.242371 81.648972 142.887146 L 76.146652 149.900085 L 73.436691 153.428955 L 71.02478 157.17041 C 67.815353 162.146301 64.612015 167.112 61.421921 172.057373 C 51.913651 185.975952 44.251709 201.05365 36.798294 216.112061 C 29.954224 231.482239 23.495682 247.033997 19.001465 263.195557 C 16.722824 270.292419 12.080078 276.544983 11.30188 283.754272 C 10.771896 288.070435 10.283615 292.381042 9.581711 296.635742 C 8.912354 300.896973 7.905273 305.076904 7.133179 309.310181 C 5.672409 317.788452 3.722336 326.19812 3.198441 334.787292 C 2.270706 343.904419 1.875 353.043396 1.155807 362.147278 C 0.883179 371.276123 0.166016 380.39325 0.313522 389.53125 C 0.035812 407.79599 1.158859 426.123322 4.040726 444.167847 C 5.074265 450.689453 6.904297 457.137329 7.593994 463.588745 C 8.237915 472.759766 10.935669 481.295532 14.332275 489.64566 C 15.715744 492.964447 16.665848 496.559418 17.640381 500.077087 C 21.749069 515.046997 26.618652 529.918213 33.143311 544.013245 C 41.089066 560.352844 48.015549 577.202148 57.903244 592.520386 C 61.980392 598.372192 65.664871 604.453308 69.577225 610.390015 C 73.671677 616.193909 77.356155 622.320801 81.795456 627.895874 C 92.145996 642.022949 105.044754 654.061646 117.680054 666.041321 C 120.838623 668.803711 123.997192 671.56604 127.18222 674.351807 C 128.776245 675.740356 130.376373 677.13446 131.986694 678.537781 C 133.663116 679.862244 135.349731 681.195313 137.050568 682.539673 C 140.455322 685.215515 143.916016 687.935669 147.462158 690.722412 C 151.135468 693.33374 154.89624 696.00708 158.774017 698.763306 C 161.907135 703.376038 169.828491 703.874512 175.997101 707.499451 C 181.702881 710.800415 183.597015 708.489258 182.920532 702.098877 C 181.757813 690.786011 176.166992 682.051392 169.220184 673.456055 Z"/>
            </g>
        </g>
    </g>
</svg>
